<svg xmlns="http://www.w3.org/2000/svg" xmlns:xlink="http://www.w3.org/1999/xlink" preserveAspectRatio="xMidYMid meet" version="1.0" viewBox="189.1 26.2 193.2 447.6" zoomAndPan="magnify" style="fill: rgb(0, 0, 0);" original_string_length="2310" width="120.51487226571419px" height="279.67586390777564px"><g id="__id1_s76tk7mdh"><path d="M380.59,240.44c1.09,.02-1.11-.03,0,0h0Z" style="fill: rgb(69, 89, 66);"/></g><g id="__id2_s76tk7mdh"><path d="M197.51,473.79l3.36-8.7c6.41-14.57,12.33-29.36,17.72-44.34,5.02-13.96,8.42-28.77,14.46-42.29,5.58-12.49,12.59-24.16,21.13-34.85,4.23-5.29,8.72-10.73,13.71-15.33,4.4-4.05,10.02-5.77,15.12-9,16.95-10.75,30.7-26.93,46.25-39.64,16.86-13.79,34.49-27.7,53.02-39.16-.56-.01-1.12-.02-1.69-.03-28.76-.69-56.92,7.46-78.44,27.22-14.16,13.01-19.7,30.18-30.62,45.37-4.8,6.68-9.19,14.54-14.91,20.31-6.55,6.61-12.83,13.17-18.21,20.81,3.79-15.35,7.34-30.75,11.22-46.07,1.56-6.15,2.13-14.98,5.14-20.55,2.79-5.18,9.64-9.76,13.76-13.9,8.96-8.99,16.65-19.33,26.1-27.81,8.55-7.67,18.83-12.57,24.81-22.78-9.07,8.75-23.46,10.24-33.48,18.06-11.76,9.18-20.68,22.46-28.59,34.96,3.73-17.58,6.31-36.07,12.81-52.92,2.67-6.91,7.36-16.48,13.33-21.2,5.89-4.66,13.94-7.2,20.14-11.81,13.74-10.22,20.32-25.23,29.16-39.28,4.91-7.8,10.93-14.97,16.09-22.63,3.86-5.71,7.11-11.96,11.37-17.38-25.04,6.58-48.86,17.29-59.09,42.76-4.94,12.29-8.66,25.24-14.65,37.07-5.38,10.62-15.44,17.61-20.3,28.57,.84-9.37,1.39-18.79,1.18-28.2-.2-9.15-2.32-18.57-1.93-27.61,.72-17.04,5.12-33.74,9.42-50.17,3.2-12.21,7.49-23.94,11.66-35.84,3.33-9.48,6.42-19.09,8.12-29.01,1.28-7.49,.69-14.68,.73-22.21-9.73,18.52-26.84,32.47-36.62,51.28-9.19,17.67-11.4,37.2-7.77,56.73,.84,4.52,2.01,8.85,3.8,13.09,1.91,4.53,5.28,8.78,6.33,13.53,2.44,11.02,2.23,23.87,1.99,35.13-.28,13.08-1.8,26.17-3.7,39.11-1.91,12.96-6.43,25.53-9.41,38.29-1.13-6.93-4.57-14.19-3.18-20.96,1.32-6.42,2.89-12.2,3-18.86,.17-10.5-1.91-21.3-4.92-31.32-3.61-12-10.51-23.19-19.4-31.98-8.27-8.18-18.65-14.15-22.56-25.67-9.33,17.45-2.22,34.33,3.99,51.56,5.53,15.34,13.09,29.31,24.2,41.32,11.88,12.85,13.96,36.18,13.22,53.11-.37,8.47-2.07,16.58-4.16,24.76-2.45,9.6-3.51,19.32-5.94,29,1.4-17.64-2.28-37.59-9.45-53.75-7.94-17.89-20.39-31.88-32.17-47.15,5.88,21.25,13.27,41.39,21.75,61.77,3.7,8.9,7.34,17.83,10.97,26.77,3.08,7.58,7.33,17.09,5.32,25.51,.16-.39,.34-.77,.52-1.16-10.47,40.43-24.63,79.62-42.14,117.5h8.47Z" style="fill: rgb(69, 89, 66);"/></g></svg>