<svg xmlns="http://www.w3.org/2000/svg" xmlns:xlink="http://www.w3.org/1999/xlink" preserveAspectRatio="xMidYMid meet" version="1.0" viewBox="-2.6 -0.2 309.3 272.0" zoomAndPan="magnify" style="fill: rgb(178, 93, 127);" original_string_length="15093" width="130.8954430097858px" height="115.18798984861151px"><g id="__id14_s6adhr1mo"><path d="M305.884705,173.691757c-0.78125-27.817871-4.055664-37.20459-25.602539-50.244133 c-0.478516-0.289551-0.928711-0.583496-1.395508-0.875c8.840576-0.509033,18.366211-2.599854,19.570312-6.541992 c1.690918-5.532227,0.043945-17.496094-4.625488-19.987305c-8.822266-4.701416-29.77832-2.858154-40.763443-0.634277 c-1.060303-2.578979-1.840088-5.223633-2.315674-7.945801l-0.130371-0.747559 c-2.344238-13.417969-3.893066-22.282715-5.42334-27.457035c-3.84082-12.984741-22.23877-20.078613-57.696533-22.156128 c1.973389-2.444824,3.138428-4.918335,3.465576-7.402464c0.452637-3.435059-0.650879-6.729004-3.279297-9.790527 c-1.901367-2.215332-4.111328-3.793945-6.570312-4.693359c-0.112793-0.044434-0.23291-0.086426-0.396484-0.140625 c-4.974609-1.662598-10.304688-0.30127-14.089844,2.412598c-1.396484-2.769531-3.593262-4.969727-6.458496-6.405273 c-0.476318-0.23877-0.964844-0.440796-1.458008-0.626221c-1.007812-5.02356-4.355469-8.405396-9.788574-9.833252 c-2.943848-0.777832-5.769821-0.78174-8.4375-0.148926c-0.113312,0.026881-0.224792,0.057505-0.338867,0.087891 c-0.036392,0.009694-0.072754,0.018555-0.108887,0.029297c-5.354004,1.547363-9.172852,5.996582-10.783203,10.656738 c-2.893555-1.632324-6.15625-2.257324-9.545898-1.783203c-6.814941,0.954102-12.464844,6.29541-13.434082,12.701172 c-0.442627,2.925415-0.311523,9.508301,7.68335,15.56201c-1.82251,0.076416-15.825928,0.671387-20.651611,0.851074 c-4.442383,0.166016-10.899902,1.230957-14.582031,3.178711C60.563889,51.387562,60.34758,65.973991,60.138107,80.079948 c-0.079834,5.386108-0.166504,10.832275-1.159912,16.239502c-10.674316-3.850464-31.905518-4.345093-38.562744-1.872314 c-5.339844,1.998047-6.697266,15.15332-6.584473,17.825684c0.102539,2.379883,1.25,4.499023,3.317871,6.12793 c4.51123,3.554199,13.469727,4.526367,21.182129,4.526367c1.190918,0,2.348633-0.02417,3.459229-0.064697 c-2.371338,1.776733-5.040039,3.52832-8.072998,5.248283c-1.75293,0.993164-3.731445,1.971191-5.826172,3.006836 c-8.852051,4.376465-19.869141,9.822754-22.71582,21.446289c-6.21582,25.342773-7.730957,59.358887,0.492676,72.416016 c1.874023,2.976318,4.209961,4.87915,6.943115,5.691895c-0.288086,10.221924,1.063477,26.553482,4.174072,32.269547 c3.994629,7.340332,20.237305,8.86084,33.014648,8.86084c6.853027,0,12.711426-0.437988,15.143066-0.649902 c11.768066-1.026367,10.641113-17.669693,9.334961-34.045914c2.337402,0.078003,4.621094,0.140259,6.855713,0.191162 c0.016846,0.000244,0.032715,0.004639,0.049561,0.004639s0.03418-0.002319,0.05127-0.002319 c3.577576,0.002151,14.638672,0.180542,16.202148,0.180542c20.518555,0,41.463867-0.791992,63.862305-2.412109 c6.306641-0.45752,45.114502-3.0896,58.259033-4.265991c0.147217-0.005249,0.293213-0.012817,0.434814-0.039307 c1.995605-0.179565,8.565186-0.779175,9.858398-0.892944c0.168701,10.314697,1.051758,26.665054,2.633789,31.704117 c0.473633,2.888184,3.039062,4.934082,7.633301,6.084961c3.183594,0.797363,7.808105,1.180664,12.978027,1.180664 c14.355972,0,32.905289-2.956055,36.398941-8.202148c3.021973-4.537842,4.375977-25.825577,2.674072-37.159927 C302.22699,220.010849,306.719177,203.683945,305.884705,173.691757z M290.906189,101.28405 c1.265137,1.277832,2.916992,8.276367,1.95459,12.458984c-2.368652,1.440186-13.144043,3.708374-22.683838,2.760986 c-6.24585-4.900146-10.994385-10.059692-14.29274-15.534668C267.244812,98.88073,284.58075,98.021599,290.906189,101.28405z M162.280197,23.639517c0.157227,1.288086,1.125,2.328613,2.397949,2.57959c1.27002,0.249023,2.562988-0.344727,3.197266-1.477051 c1.469238-2.622559,6.463379-5.474121,10.910156-3.987305l0.075684,0.020508c0.053711,0.022949,0.107422,0.043945,0.162109,0.063477 c1.495117,0.539551,2.878906,1.541992,4.112305,2.979004c1.490723,1.736328,2.106934,3.403809,1.883301,5.099121 c-0.392578,2.983887-3.328125,6.425291-8.48877,9.951658c-0.03125,0.020996-0.061523,0.042969-0.091309,0.064941 c-0.021973,0.01416-0.899902,0.600098-1.310059,0.864258c-6.554199,4.174316-13.876465,6.94873-15.280273,7.412598 c-0.60791-0.17041-1.905273-1.106934-4.66748-4.42041c-0.22998-0.275879-0.434082-0.52002-0.601562-0.713867 c-2.34668-2.724121-4.294922-5.379883-5.808105-7.92041l-0.180664-0.296387c-4.011719-6.883299-4.557129-12.70117-1.495117-15.9624 c1.498047-1.595703,3.776367-2.442871,6.125-2.442871c1.450684,0,2.928223,0.323242,4.264648,0.993164 C159.388596,17.400747,161.765549,19.42272,162.280197,23.639517z M112.210373,23.064322 c0.572266-3.780273,4.154785-7.071777,8.333984-7.656738c2.275391-0.318848,5.620605,0.021973,8.65332,3.448242 c0.860352,0.972168,2.248047,1.280762,3.439453,0.76416c1.190918-0.516113,1.915039-1.739746,1.793945-3.031738 c-0.301758-3.227539,2.382324-8.818359,7.276367-10.23291l0.078613-0.021484c0.047363-0.010254,0.094238-0.021484,0.141113-0.033691 c1.665039-0.436035,3.503418-0.394043,5.469727,0.125c2.231445,0.586426,3.739014,1.578125,4.632812,3.077637 c-3.543213,0.271973-6.919434,1.742554-9.308594,4.287109c-2.369141,2.523926-7.045898,9.826172,0.714355,23.138182 l0.197754,0.325195c0.030518,0.05127,0.067383,0.104126,0.098145,0.155518c-1.237061,1.949463-2.188965,3.29248-2.510742,3.715576 c-0.60498,0.246094-2.29834,0.242676-6.855957-1.023438c-0.37793-0.10498-0.711914-0.197754-0.976562-0.265625 c-3.639648-0.95166-6.928711-2.091309-9.776367-3.387207c-0.161133-0.079102-0.32341-0.147053-0.475586-0.214355 C115.384995,32.805759,111.491623,27.815786,112.210373,23.064322z M20.86174,113.687859 c-0.884766-0.697266-1.018555-1.260742-1.036133-1.67041c-0.147461-3.497559,1.584961-10.61377,2.897461-12.023438 c5.950195-2.009521,26.40332-1.337646,34.785156,2.141113c-1.575684,4.782715-4.141602,9.505371-8.33374,14.098877 C42.366379,117.373894,25.81633,117.590813,20.86174,113.687859z M64.42131,265.174683 c-23.657227,2.064941-40.119141-0.973145-42.366211-5.101562c-2.226074-4.090591-3.644043-18.152725-3.473145-28.180191 c15.577148,2.828979,33.402344,4.280273,49.658447,4.984131C69.284103,249.929306,70.437912,264.650391,64.42131,265.174683z M86.363693,201.543808c6.090332-3.157715,38.763672-4.12207,62.621094-4.826172 c13.037109-0.384766,25.350586-0.748047,33.707031-1.373535c19.17627-1.437012,30.035156-0.678223,33.195801,2.316895 c1.299805,1.231445,1.324219,3.135254,1.255859,6.394043c-0.018066,0.853516-0.036133,1.731934-0.020508,2.647461 c0.001465,0.133667-0.008545,0.601074-0.023926,1.20105c-35.867188,0.115723-105.134521,2.938232-133.095703,4.33313 C84.740891,203.126328,86.387131,201.543808,86.363693,201.543808z M179.831467,227.773788 c-6.325684,0.42627-12.649414,0.852051-18.96582,1.310059c-23.947266,1.732422-46.210449,2.51416-68.09375,2.382812 c0,0-6.19751-0.061523-8.803223-0.110229c-0.239014-3.65979-0.388184-8.35376-0.270996-13.096802 c27.456787-1.380371,97.166016-4.253784,133.223877-4.357666c-0.095947,2.993042-0.233398,7.132812-0.383057,11.148926 C204.267258,226.115463,191.887375,226.961777,179.831467,227.773788z M284.517029,257.28894 c-2.086426,2.575195-20.42041,6.268555-35.5215,5.506836c-8.381836-0.422363-10.32959-2.044922-10.605957-2.327148 c-0.028809-0.199707-0.077148-0.396484-0.145508-0.586426c-1.198975-3.346558-2.246338-18.750504-2.402588-30.507584 c3.880859-0.299438,7.753174-0.569336,11.554932-0.831299c12.761978-0.879639,25.916031-1.79895,38.898941-3.898682 C287.90863,235.337387,286.189392,254.604355,284.517029,257.28894z M289.253357,218.062363 c-13.95459,2.543945-28.349121,3.536133-42.269058,4.495117c-7.070312,0.487305-14.381348,0.990723-21.588379,1.692383 c-0.940186,0.091553-1.890625,0.167847-2.833008,0.256226c0.202148-5.497681,0.5625-19.544312,0.579102-20.325073 c0.07666-3.635742,0.163574-7.756836-3.126953-10.875c-4.705566-4.459473-15.648438-5.603027-37.771484-3.945312 c-8.220703,0.615723-20.46875,0.977051-33.436035,1.359863c-33.904297,1.000488-58.427734,1.980469-65.213379,5.500488 c-2.341797,1.221191-5.116211,4.489258-5.79248,19.039551c-0.239014,5-0.177734,10.744141,0.148193,15.957275 c-20.010254-0.556152-43.963379-2.152344-63.27124-6.194092c-1.466797-0.306641-2.753418-1.367188-3.934082-3.241211 c-7.046875-11.189453-5.555664-44.085449,0.258301-67.790527c2.182129-8.911133,11.407715-13.472168,19.547363-17.496094 c2.172852-1.07373,4.225098-2.088379,6.125977-3.165527c28.916016-16.397942,29.206055-35.929192,29.461426-53.161613 c0.208496-14.047363,0.373047-25.14307,15.398438-33.108402c2.59375-1.37207,8.136719-2.34082,11.997559-2.484863 c4.835449-0.180176,25.624512-1.063599,30.997559-1.269775c2.280273,0.863159,4.726074,1.651001,7.351074,2.337158 c0.245117,0.062988,0.541016,0.145508,0.875977,0.23877c2.047363,0.568848,4.847168,1.347168,7.453613,1.347168 c2.166016,0,4.198242-0.537598,5.553223-2.179199c0.289307-0.349854,0.885254-1.173218,1.644287-2.300049 c0.824951,1.074219,1.688232,2.155273,2.628662,3.247314c0.151855,0.175781,0.331543,0.391602,0.534668,0.635254 c2.118652,2.541016,5.504883,6.603027,9.307617,6.603027c0.478516,0,0.963867-0.064453,1.454102-0.204102 c0.995605-0.284668,9.349121-3.289062,17.028809-8.180176c0.464844-0.298828,0.931152-0.604492,1.384766-0.913086 c0.032715-0.022461,0.064453-0.044922,0.096191-0.068359c0.023926-0.015137,0.047363-0.030762,0.070801-0.046875 c0.494385-0.337891,0.967529-0.677002,1.429443-1.016724c35.41626,1.461304,54.968506,7.56604,58.100342,18.154907 c1.433105,4.843754,2.958008,13.573734,5.266602,26.787601l0.130859,0.747559 c2.698242,15.44043,13.274429,28.552734,32.333511,40.084953c18.75293,11.349121,21.937012,17.696289,22.710938,45.27832 C300.905212,210.454453,293.663025,217.261581,289.253357,218.062363z M100.265549,117.751335 c13.833008,0.617676,32.71582,1.013672,53.169434,1.114746c0.590332,0.00293,3.726074,0.01709,8.464355,0.01709 c20.002441,0,68.533691-0.253906,74.429688-2.688965c2.087891-0.862305,2.241211-2.600586,2.238281-3.11084 c-0.101074-21.676758-4.543945-35.148926-13.981934-42.397461c-11.109375-8.532719-35.820312-10.382328-58.109863-11.446293 c-29.009277-1.385742-60.523926-1.782715-74.29541,5.792484c-7.435059,4.084961-13.120117,13.127441-16.898438,26.880371 c-0.05127,0.188477-3.552887,18.245399-3.791504,19.162598c-0.270462,1.039597-0.013184,2.152832,0.748535,2.92627 C73.325607,115.104362,74.813889,116.614616,100.265549,117.751335z M80.001877,98.969109 c0.548828-2.81543,0.990723-5.084961,1.086914-5.544922c3.283691-11.913086,8.117188-19.912109,13.981445-23.134277 c12.537109-6.896976,44.591797-6.326664,71.119141-5.057129c15.444336,0.737305,44.192383,2.109375,54.741211,10.211914 c7.557129,5.803711,11.265625,17.119141,11.611816,35.518555c-7.371094,1.096191-36.781738,2.074219-77.327637,1.911133 c-44.628418-0.183594-70.22168-1.568848-77.366699-2.931641C78.237717,107.994011,78.887619,104.681511,80.001877,98.969109z M238.932541,130.00621c0.458008,7.242188,0.600098,25.654297-7.95166,40.181641 c-5.657227,9.608398-20.411621,9.625-36.032227,9.642578c0,0-46.265625,0.29541-54.158691,0.29541 c-18.408203,0-32.747559-0.351074-43.502441-1.79834c-12.081055-1.625488-24.739258-4.953613-27.024902-17.313965 c-1.977539-10.647461-2.392578-19.770508-3.080566-34.884758l-0.012695-0.27002 c-0.075195-1.654785,1.205566-3.057617,2.86084-3.133301c1.658203-0.077637,3.057617,1.205566,3.133301,2.86084l0.012207,0.269531 c0.67627,14.855949,1.084473,23.822746,2.986816,34.064445c2.723145,14.727539,30.247559,14.520508,90.546387,14.070801 c7.825195-0.058594,28.233398-0.160645,28.233398-0.160645c13.249023-0.014648,26.94873-0.030273,30.868164-6.686523 c7.708984-13.095703,7.557129-30.069336,7.133789-36.758789c-0.17627-2.794426,1.755859-3.42382,2.352539-3.550285 c1.623047-0.344727,3.213867,0.692383,3.556641,2.313469c0.044922,0.212891,0.066406,0.424805,0.06543,0.633789 L238.932541,130.00621z M263.745544,177.530624c1.816895,0,3.448242-0.353516,4.751465-0.778809 c4.561035-1.487305,10.532227-6.14502,12.03125-9.55127c1.679688-2.833496,1.912109-6.650391,0.649902-10.789062 c-1.762695-5.778809-5.95459-10.724609-10.937988-12.905762c-6.299805-2.76416-13.291504-1.210449-18.252457,4.054688 c-4.983887,5.288574-6.355957,12.706543-3.413574,18.459473C253.291916,175.24205,259.122009,177.530624,263.745544,177.530624z M256.353943,151.675644c0.921387-0.977539,3.701172-3.527832,7.583496-3.527832c1.200195,0,2.505859,0.244141,3.894043,0.853027 c3.374512,1.477539,6.36084,5.073242,7.607422,9.161133c0.757324,2.48291,0.710449,4.750488-0.125488,6.065918 c-0.155273,0.245117-0.272461,0.507324-0.350586,0.77832c-1.229004,1.643555-6.333496,6.708984-11.452148,6.53125 c-3.619629-0.104004-6.847656-2.879883-9.594742-8.25C251.849045,159.246445,253.651291,154.543808,256.353943,151.675644z M40.012131,178.839218c0.783203,0.102539,1.561035,0.15332,2.333496,0.15332c5.851074,0,11.305664-2.916504,15.229492-8.228027 c0.111328-0.150879,0.208008-0.311035,0.289062-0.47998c5.29248-10.975586,1.038574-18.81543-4.707031-22.493164 c-7.572754-4.846191-17.95166-3.672363-23.135742,2.617188c-6.432129,7.803711-5.171387,14.602539-3.847168,17.960449 C28.360275,173.913925,33.791916,178.023788,40.012131,178.839218z M34.651291,154.22496 c1.932129-2.344238,4.992188-3.375,8.085449-3.375c2.584961,0,5.193848,0.720215,7.186035,1.995117 c4.711914,3.016113,5.651855,8.185547,2.658691,14.577637c-4.217773,5.541992-9.18457,5.811035-11.789551,5.467285 c-4.09082-0.536133-7.637695-3.174316-9.036133-6.72168C30.306076,162.491074,31.334396,158.249374,34.651291,154.22496z M279.966736,192.349472c-22.105469,0.88623-25.726578,1.85498-27.272476,2.269043l-0.124512,0.032227 c-0.193359,0.008789-0.385254,0.036133-0.57373,0.082031c-3.286621,0.797852-5.182129,3.830566-4.946777,7.913574 c0.237305,4.114746,2.651367,8.755371,6.661133,9.251465c1.268555,0.155762,2.759293,0.223633,4.383316,0.223633 c8.558594,0,20.805176-1.889648,23.585449-2.78125c3.624512-1.160645,5.553711-5.375488,4.691895-10.250488 C285.624451,194.868515,283.107361,192.220566,279.966736,192.349472z M280.473083,202.388046 c-0.125,0.651367-0.381348,1.160156-0.625,1.238281c-2.816895,0.90332-18.358398,3.151367-25.327164,2.325684 c-0.638672-0.368164-1.669922-2.534668-1.466797-4.444336c0.02832-0.264648,0.120117-0.745117,0.280762-0.899414 c0.354492-0.044922,0.644043-0.122559,0.910156-0.193848c2.974136-0.795898,11.579117-1.486816,25.57814-2.054199 C280.243103,198.943222,280.80072,200.681015,280.473083,202.388046z M55.811447,195.589218 c-4.607422-1.925781-29.11084-4.639648-32.803711-2.631836c-0.76123,0.414551-2.178223,1.185547-2.886719,6.849609 c-0.793457,6.346191,0.652344,7.686035,1.269531,8.257812c3.768555,3.491699,25.080078,5.512695,32.273438,5.512695 c1.175781,0,1.975098-0.053711,2.257812-0.164551c5.325684-2.078613,5.32666-7.924316,5.327148-10.734375 C61.248947,199.707382,59.164963,196.991074,55.811447,195.589218z M54.022873,207.681992 c-4.099121,0.092773-23.842285-1.838379-28.109863-3.788086c-0.103027-1.342285,0.178711-4.105469,0.560547-5.642578 c4.929688-0.341309,22.850098,1.129395,27.023926,2.874023c1.208008,0.504883,1.751465,1.211914,1.751465,1.552734 C55.248459,205.334335,55.038986,207.042831,54.022873,207.681992z" style="fill: inherit;"/></g></svg>