
<svg xmlns="http://www.w3.org/2000/svg" xmlns:xlink="http://www.w3.org/1999/xlink" data-name="Calque 2" preserveAspectRatio="xMidYMid meet" version="1.0" viewBox="-0.8 0.0 215.2 280.4" zoomAndPan="magnify" style="fill: rgb(178, 93, 127);" original_string_length="7355" width="114.55651147284993px" height="149.30351021343px"><g data-name="Calque 9"><g id="__id7_s6adhr1mo"><path d="M107.99,88.02c43.52-1.1,86.29,28.29,93.86,72.36,12.49,72.76-68.14,120.06-131.62,92.29C1.51,222.62-.84,131.4,66.54,98.19c12.25-6.04,25.43-8.98,39.02-10.16L98.35,0l1.86.54,7.78,87.48ZM116.23,96.08c.66.63,7.03,2.7,8.69,3.54,3.01,1.53,5.59,3.81,8.67,5.2,1-.22,2.83-8.59,2.69-9.82-.08-.73-.25-.81-.84-1.12-1.32-.68-6.86-1.55-8.69-1.86-4.82-.81-9.64-1.05-14.48-1.59,1.76.96,3.17,4.89,3.95,5.63ZM101.25,90.93c-8.78,1.11-17.51,2.85-25.71,6.22.19,4.28,2.06,8.14,3.65,12.01,3.24-2.18,5.88-5.24,9.15-7.39,1.8-1.18,5.88-2.69,6.93-3.63.95-.85,1.3-2.52,2.14-3.61,1.09-1.41,2.7-2.27,3.84-3.59ZM104.94,91.99c-.96.22-3.89,2.22-4.68,3-7.48,7.44.8,15.12,9.16,10.6,7.84-4.24,4.67-15.71-4.48-13.59ZM157.8,102.98l-19.13-8.21c-.24,4.05-1.21,8.03-2.73,11.77l14.96,13.66c1.98-1.84,7.86-15.72,6.91-17.21ZM62.88,127.87l14.32-16.65-4.49-13.07c-2.57.93-17.57,8.68-17.9,10.35,1.29,7.12,4.34,13.3,8.06,19.37ZM116.12,98.6c.5,3.16-1.37,5.02-2.88,7.42,2.64.51,10.69,11.37,11.66,11.22,1.47-.23,7.87-8.12,7.47-9.67-.36-1.42-15.64-9.68-16.25-8.97ZM95,122.59l4.32-13.69c-1.18-1.79-2.77-2.72-3.85-4.76-.54-1.02-.55-2.19-1.17-3.13-2.04.65-13.21,9.02-13.21,10.79,3.23,4.9,8.27,9.11,13.92,10.8ZM160.5,104.84c-1.41,3.06-2.19,6.34-3.53,9.44-1.26,2.91-3.03,5.59-4.33,8.48l13.12,18.05c4.09-5.16,7.37-11.36,9.11-17.74.35-1.29,1.36-4.39,1.21-5.49-.18-1.32-4.74-4.94-6.02-6.01-1.12-.93-8.97-6.86-9.57-6.73ZM122.29,119.65c.25-.42.05-.97-.18-1.38-.42-.78-5.34-6.38-6.22-7.22s-3.87-3.31-4.82-3.31c-.81,0-2.66,1.09-3.96,1.28-1.55.23-4.81-.26-5.64.59l-4.03,13.63c.48,1.61,10.79,1.41,12.63,1.2,4.22-.47,8.52-2.87,12.22-4.8ZM135.79,136.02c1.45,1.06,12.69-10.93,13.44-13.19-3.18-4.59-7.45-8.28-11.78-11.74-.49-.4-2.7-2.24-3.1-1.93-1.64,3.92-4.62,7.93-8.19,10.34l9.63,16.52ZM52.79,110.12c-.36-.33-2.64,1.55-3.1,1.93-1.83,1.5-10.15,9.02-10.34,10.79,1.81,7.27,5.17,14.49,9.89,20.33.55.68,3.25,3.89,3.78,3.89,2.05-6.12,5.69-11.42,8.74-17.04-4.54-5.74-7.59-12.69-8.98-19.9ZM93.97,125.06c-6.05-2.37-11.07-6.48-15.03-11.58-5.3,4.97-9.98,10.54-14.07,16.55,6.56,7.94,15.68,13.79,25.82,16.07l3.28-21.03ZM178.01,166.24c6.86-5.64,12.63-12.65,17.08-20.38-1.55-4.23-3.54-8.33-5.85-12.2-1.25-2.1-9.33-13.92-10.99-13.96-1.65,8.76-6.05,16.57-11.11,23.75,4.02,7.39,8.41,14.68,10.87,22.79ZM93.15,146.52c10.06,2.31,21.46.69,30.97-3.21,1.62-.67,9.81-4.54,9.67-5.99-.1-1.04-3.26-6.18-4.04-7.48-.66-1.11-5.21-8.02-5.78-8.13-8.22,4.73-17.47,7.16-26.83,4.37-.73.14-2.11,7.58-2.38,8.99-.29,1.51-1.95,10.94-1.61,11.47ZM46.08,169.6l5.69-19.81c-6.65-7.07-11.83-15.45-14.56-24.8-2.68,3.17-12.13,17.34-11.67,20.76.3,2.19,7,11.17,8.78,13.31,1.1,1.32,10.62,11.56,11.76,10.55ZM150.9,124.99c-3.82,5.24-8.51,9.77-13.64,13.72l7.87,19.85c7.09-4.06,13.87-9.06,18.86-15.57l-13.09-17.99ZM90.15,148.56c-8.28-1.97-15.74-6.17-22.23-11.59-1.01-.84-3.86-4.31-4.81-4.31l-8.25,16.57c9.26,8.91,21.18,14.6,33.66,17.5l1.62-18.17ZM91.23,167.15c14.01,2.83,28.97,1.43,42.41-3.3,1.91-.67,6.67-2.36,8.09-3.42.42-.31.82-.48.77-1.11-1.97-5.49-3.57-11.69-6.14-16.91-.31-.64-.76-2.17-1.69-2.03-12.03,8.1-27.28,11.29-41.59,8.79-1.05.78-1.69,15.57-1.85,17.97ZM151.15,182.55c1.45,1.01,22.92-11.43,24.83-14.69-2.61-7.84-6.27-15.28-10.7-22.23-5.6,6.27-12.36,11.13-19.38,15.67l5.24,21.26ZM43.68,193.11c-.25-6.83.16-13.57,1.38-20.29-8.35-6.65-15.34-14.66-20.81-23.84-1.49-.02-4.46,17.84-4.55,19.9-.17,4.11.35,4.25,2.86,7.21,3.33,3.92,15.05,14.2,19.43,16.55.58.31.91.65,1.69.46ZM196.7,149.45c-.89-.21-.93.3-1.36.8-1.26,1.46-2.42,3.73-3.73,5.39-3.79,4.82-7.95,9.28-12.57,13.31l4.71,21.76c3.96-3.22,8.1-6.97,11.52-10.78.75-.84,5.02-5.86,5.17-6.35.53-1.76-.19-6.85-.44-8.96-.62-5.15-2.11-10.15-3.3-15.17ZM88.25,169.17c-12.89-2.67-24.56-8.8-34.49-17.32l-5.75,19.47c.03.88,2.69,2.48,3.57,3.09,6.05,4.23,14.49,8.23,21.47,10.67,1.78.62,12.58,3.93,13.5,3.67.53-.15.74-.65.78-1.17l.91-18.42ZM143.46,162.4c-16.13,7.81-34.57,10.55-52.3,7.41-.5.35-.44.92-.49,1.45-.24,2.54-1.5,16.96-.73,18.04,19.59,3.89,40.1,1.4,58.75-5.36l-5.24-21.54ZM181.26,193.01c-.56-7.62-2.12-15.19-4.46-22.45-7.46,6.28-16.13,10.85-24.97,14.86l1.71,22.55c10.16-3.03,19.03-9.11,27.72-14.97ZM86.83,191.21c-10.28-1.72-20.44-5.54-29.56-10.49-2.75-1.49-6.38-4.52-8.79-5.61-.64-.29-.74-.36-1.21.24-1.26,6.63-1.55,13.42-.95,20.17,12.56,7.76,26.4,14.2,41.02,16.78l-.5-21.09ZM48.95,222.85c-2.97-8.54-3.83-17.52-5.54-26.36-8.65-5.64-16.35-12.5-23.71-19.7.15,8.47,1.82,17.27,4.78,25.19,1.11,2.97,2.25,6.19,4.58,8.37,5.37,5.03,13.4,9.05,19.89,12.49ZM184.72,212.78c.36.49,9.04-6.85,9.49-7.54,1.49-2.31,3.4-9.31,4.1-12.21,1.2-5.02,1.84-10.13,2.24-15.27l-16.52,16.29.7,18.73ZM149.21,186.39c-19.24,7.13-39.66,8.74-59.96,5.76l.91,20.81c14.31,3.27,29.84,3.24,44.27.62,5.3-.96,10.46-2.55,15.61-4.05l1.1-1.31-1.94-21.83ZM153.53,211.1v17.51c6.9-2.09,13.7-5.07,19.99-8.55,1.77-.98,6.92-3.71,8.1-4.85.79-.77.63-1.21.72-2.16.54-5.45-1.14-11.49-.51-17.06-.72-.16-1.05.26-1.59.57-3.74,2.13-7.38,5.17-11.35,7.35-4.96,2.72-10.23,4.83-15.36,7.19ZM87.77,215.22c-9.11-1.98-18.04-4.88-26.51-8.75-5.03-2.29-9.71-5.26-14.7-7.61.58,5.29,1.38,10.66,2.63,15.83.51,2.1,1.96,7.94,2.97,9.46.82,1.24,11.04,4.83,13.22,5.53,3.12,1,23.41,6.35,24.83,5.15l-2.44-19.62ZM184.72,221.41c1.22-.87,6.7-9.51,6.23-10.07l-6.13,4.42-.1,5.66ZM151.14,211.82c-19.42,6.38-40.58,8.08-60.68,3.83-1-.05,1.99,18.22,2.46,19.69,19.53,2.38,39.53.08,58.21-5.77v-17.75ZM50.28,226.33c-6.76-2.97-12.98-7-19.06-11.15-.43.46,2.91,5.16,3.44,5.91,3.98,5.62,9.27,11.27,14.55,15.67,1.57,1.31,6.69,5.58,8.15,6.24.25.12.81.09.71-.23l-7.79-16.44ZM182.31,218.06c-4.57,2.07-8.72,4.95-13.26,7.13-4.86,2.33-9.99,4.18-15.03,6.07l-3.84,18.46c8.35-4.05,16.39-9.08,23.27-15.34,4.92-4.47,10.37-8.96,8.86-16.32ZM90.58,237.83c-12.63-1.84-24.97-4.99-36.82-9.7,1.97,3.98,3.51,8.45,5.66,12.32,3.46,6.21,6.77,7.8,13.06,10.45,7.62,3.21,15.75,5.44,23.97,6.49l-5.87-19.55ZM150.65,232.45c-18.55,5.48-37.77,7.3-57.08,5.76-.71.72,4.88,18.89,5.74,19.45,15.86,2.05,32.88-.3,47.5-6.75,1.16-1.21,4.5-17.76,3.85-18.45Z" style="fill: inherit;"/><path d="M10.18,222.79l3.45-.46c2.1,2.39-2.66,3.97-3.04,6.05-.59,3.25,2.37,6.59,1.92,9.82-3.08.57-3.25-4.17-4.37-6.42-.85-1.7-2.47-4.43-4.58-4.5-1.19-.04-2.39,1.81-3.51.12-.31-2.01,2.04-2.05,2.86-2.88,1.31-1.32,1.04-5.34.99-7.2-.04-1.69-1.33-3.7.23-5.01,1.73-.37,4.68,9.12,6.07,10.49Z" style="fill: inherit;"/><path d="M166.48,74.62c.35,2.81-3.25,2.21-4.92,2.99-2.99,1.39-1.5,8.04-3,8.51-2.1.13-1.93-3.09-2.85-4.82-2.28-4.29-6.69-2.21-6.98-3.58-.42-2.02,4.68-1.74,5.79-2.84,1.2-1.19,1.92-10.06,4.04-6.99.94,1.35.21,6.09,1.68,6.99,1.13.69,4.63-1.45,6.23-.26Z" style="fill: inherit;"/><path d="M175.01,89.86c-.62.53-1.92.42-2.73.86-2.69,1.49-1,6.94-3.16,6.94-1.89,0-1.51-4.29-3.06-5.58-1.39-1.15-5.33-.57-5.33-2.35.48-1.97,3.89-1.43,5.04-2.64l1.93-4.81c2.49-.29,2.39,4.37,3.58,5.06.29.17,6.24.35,3.74,2.52Z" style="fill: inherit;"/><path d="M13.38,204.23c.66,1.32,1.49,4.4,2.68,5.23,1.05.73,3.3.12,3.63,1.17.42,1.35-1.07,1.51-1.65,2.18-1.66,1.96.65,4.37.21,6.69-2.82.41-3.56-3.14-5.79-4.56-1.27-.8-2.53.09-3.3-1.49-.22-.95,3.31-1.88,2.86-5.67-.18-1.51-2.35-4.15,1.37-3.56Z" style="fill: inherit;"/></g></g></svg>