
<svg xmlns="http://www.w3.org/2000/svg" xmlns:xlink="http://www.w3.org/1999/xlink" clip-rule="evenodd" fill-rule="evenodd" preserveAspectRatio="xMidYMid meet" stroke-linejoin="round" stroke-miterlimit="2" version="1.0" viewBox="-0.5 -9.2 882.8 1067.9" zoomAndPan="magnify" style="fill: rgb(178, 93, 127);" original_string_length="20147" width="96.85273540786123px" height="117.1446448647744px"><g id="__id9_s6adhr1mo"><path d="M402.127,235.36C404.356,230.459 409.654,225.39 418.291,221.021C428.526,215.844 444.017,211.078 463.569,206.92C589.118,180.215 887.462,176.348 1003.54,207.727C1023,212.989 1037.59,219.405 1046.05,226.571C1051.5,231.187 1054.73,236.265 1055.93,241.52C1057.21,247.122 1056.35,253.116 1052.61,259.416C1047.3,268.338 1037.8,274.32 1024.88,278.103C1008.48,282.901 986.08,284.351 961.329,286.65C922.703,290.236 886.038,289.039 716.363,289.039C578.862,289.039 485.517,295.168 438.725,287.218C416.322,283.413 403.552,275.577 399.164,264.775C396.072,257.167 396.616,247.477 402.127,235.36ZM416.692,241.984C413.525,248.946 412.211,254.381 413.987,258.752C415.163,261.648 417.759,263.761 421.362,265.614C426.365,268.187 433.067,270.028 441.405,271.444C487.745,279.317 580.19,273.039 716.363,273.039C885.013,273.039 921.457,274.283 959.85,270.718C983.418,268.53 1004.77,267.316 1020.38,262.747C1028.79,260.285 1035.4,257.047 1038.85,251.24C1040.11,249.123 1040.74,247.173 1040.37,245.281C1039.66,241.586 1036.19,238.653 1031.28,235.598C1013.73,224.684 978.898,216.878 934.509,211.304C810.171,195.689 612.4,199.401 498.642,216.856C470.003,221.25 446.789,226.47 431.648,232.55C427.124,234.367 423.386,236.229 420.554,238.202C418.733,239.47 417.312,240.62 416.692,241.984Z" transform="matrix(1,0,0,1,-290.802,-185.527)" style="fill: inherit;"/><path d="M503.642,356.942C519.812,346.112 548.085,337.737 583.036,331.953C661.876,318.907 775.464,318.198 855.31,325.605C890.118,328.834 918.607,333.661 935.322,339.57C944.15,342.691 950.097,346.445 953.057,350.063C957.45,355.432 959.037,360.592 958.799,365.281C958.563,369.94 956.543,374.411 952.479,378.472C948.152,382.798 941.051,386.845 931.51,390.28C852.848,418.597 590.74,413.537 549.346,403.545C532.142,399.392 517.479,395.571 508.728,390.529C502.395,386.881 498.623,382.369 497.234,377.384C495.818,372.299 496.594,366.196 501.502,359.057C502.075,358.223 502.801,357.505 503.642,356.942ZM513.817,369.409L513.814,369.411C512.907,370.806 512.356,371.947 512.642,373.068C513.012,374.526 514.554,375.375 516.343,376.446C519.296,378.216 523.147,379.736 527.647,381.207C534.84,383.558 543.557,385.688 553.1,387.992C593.5,397.744 849.318,402.862 926.091,375.226C931.169,373.397 935.381,371.452 938.537,369.289C940.703,367.805 942.415,366.504 942.786,364.733C943.091,363.275 942.073,361.904 940.673,360.194C938.165,357.128 931.77,354.912 922.828,352.418C906.461,347.855 882.358,344.183 853.833,341.537C775.186,334.241 663.303,334.888 585.649,347.739C554.427,352.905 528.868,359.882 513.817,369.409Z" transform="matrix(1,0,0,1,-290.802,-185.527)" style="fill: inherit;"/><path d="M399.276,262.142C398.073,257.894 400.546,253.468 404.794,252.265C409.042,251.062 413.468,253.535 414.671,257.783C420.212,277.354 466.041,357.833 472.437,369.018C513.857,441.446 558.265,519.34 568.193,538.049C634.665,663.314 670.552,677.16 709.1,683.455C713.458,684.167 716.418,688.282 715.707,692.64C714.995,696.997 710.88,699.957 706.522,699.246C665.306,692.516 625.131,679.481 554.06,545.549C544.158,526.889 499.86,449.2 458.548,376.961C451.954,365.43 404.988,282.318 399.276,262.142Z" transform="matrix(1,0,0,1,-290.802,-185.527)" style="fill: inherit;"/><path d="M1041.39,247.895C1042.7,243.677 1047.19,241.314 1051.4,242.621C1055.62,243.928 1057.99,248.413 1056.68,252.63C1042.72,297.665 969.523,419.855 905.281,520.62C888.578,546.818 849.458,623.61 810.62,666.791C792.144,687.332 773.14,700.091 756.714,699.538C752.301,699.39 748.839,695.687 748.987,691.274C749.136,686.861 752.839,683.399 757.252,683.547C763.142,683.745 769.301,681.131 775.735,676.886C783.262,671.921 790.973,664.708 798.724,656.091C836.976,613.562 875.339,537.822 891.789,512.019C955.145,412.644 1027.63,292.308 1041.39,247.895Z" transform="matrix(1,0,0,1,-290.802,-185.527)" style="fill: inherit;"/><path d="M498.536,381.442C496.237,377.672 497.432,372.745 501.202,370.447C504.972,368.149 509.899,369.343 512.197,373.113C547.848,431.588 544.546,439.559 591.721,522.586C596.737,531.415 617.199,569.627 619.617,574.462C622.113,579.454 646.738,622.999 692.46,647.498C714.137,659.113 748.848,653.561 760.648,648.479C782.059,639.257 796.063,622.471 808.279,602.16C837.414,553.718 851.547,529.047 875.698,488.332C876.569,486.865 927.164,399.252 942.771,362.599C944.501,358.536 949.203,356.643 953.266,358.372C957.328,360.102 959.222,364.805 957.492,368.867C941.652,406.067 890.343,495.005 889.46,496.495C865.291,537.24 851.147,561.929 821.99,610.407C807.974,633.711 791.543,652.593 766.977,663.174C752.774,669.292 710.996,675.583 684.903,661.601C634.887,634.801 608.036,587.078 605.306,581.618C602.923,576.852 582.754,539.192 577.809,530.49C530.772,447.705 534.083,439.747 498.536,381.442Z" transform="matrix(1,0,0,1,-290.802,-185.527)" style="fill: inherit;"/><path d="M728.439,776.585C729.205,774.889 730.563,773.451 732.385,772.614C739.798,769.208 746.094,769.324 751.274,771.371C758.477,774.217 763.972,781.414 766.805,791.098C770.28,802.973 769.924,818.633 766.154,830.567C763.139,840.114 757.756,847.259 751.3,850.161C736.664,856.74 713.61,856.712 699.146,844.244C689.46,835.896 683.007,822.029 686.104,800.359C686.771,795.69 690.09,786.781 695.429,780.112C699.698,774.779 705.224,770.984 711.23,770.252C716.455,769.615 722.36,771.004 728.439,776.585ZM737.181,787.751C739.081,790.904 741.002,794.6 742.92,798.912C744.714,802.947 742.895,807.678 738.86,809.472C734.826,811.266 730.094,809.447 728.3,805.413C724.622,797.142 721.172,791.705 717.771,788.513C716.058,786.905 714.637,785.955 713.166,786.135C711.043,786.394 709.428,788.226 707.919,790.111C704.598,794.259 702.358,799.719 701.943,802.623C699.881,817.049 703.144,826.567 709.592,832.125C719.324,840.514 734.893,839.994 744.74,835.567C747.784,834.2 749.476,830.248 750.898,825.747C753.778,816.629 754.104,804.665 751.449,795.591C750.193,791.298 748.588,787.513 745.394,786.251C743.645,785.56 741.569,786.002 739.066,787.153C738.451,787.435 737.818,787.633 737.181,787.751Z" transform="matrix(1,0,0,1,-290.802,-185.527)" style="fill: inherit;"/><path d="M663.52,685.184C660.398,682.062 660.398,676.992 663.52,673.87C666.642,670.748 671.712,670.748 674.834,673.87C686.466,685.503 694.906,702.844 700.653,720.033C709.096,745.288 711.792,770.051 711.688,774.329C711.58,778.743 707.909,782.239 703.495,782.131C699.081,782.024 695.585,778.353 695.693,773.939C695.787,770.086 693.081,747.846 685.478,725.106C680.528,710.299 673.54,695.204 663.52,685.184Z" transform="matrix(1,0,0,1,-290.802,-185.527)" style="fill: inherit;"/><path d="M768.958,681.181C772.13,678.11 777.199,678.192 780.27,681.364C783.341,684.536 783.26,689.605 780.088,692.676C771.422,701.067 765.708,714.798 761.655,728.652C755.172,750.812 753.234,773.555 752.818,778.955C752.48,783.357 748.631,786.657 744.228,786.318C739.826,785.979 736.527,782.13 736.865,777.728C737.308,771.977 739.395,747.76 746.299,724.16C751.171,707.507 758.542,691.266 768.958,681.181Z" transform="matrix(1,0,0,1,-290.802,-185.527)" style="fill: inherit;"/><path d="M692.632,780.368C696.975,781.165 699.854,785.338 699.057,789.681C698.26,794.024 694.087,796.903 689.744,796.106C666.537,791.847 591.859,764.431 534.44,753.262C511.531,748.806 491.592,746.707 479.621,750.698C455.015,758.9 430.003,790.934 419.44,818.624C416.1,827.378 414.202,835.686 414.538,842.632C414.779,847.592 416.103,851.766 419.753,854.056C459.735,879.142 495.118,870.807 534.091,855.613C576.134,839.222 622.11,815.006 680.767,810.118C685.167,809.751 689.037,813.026 689.404,817.426C689.77,821.826 686.496,825.696 682.096,826.063C625.192,830.805 580.69,854.619 539.902,870.52C496.043,887.62 456.244,895.841 411.25,867.609C400.081,860.601 396.272,846.257 399.853,828.577C403.991,808.14 417.76,782.842 435.282,763.569C447.298,750.351 461.086,740.01 474.561,735.519C488.296,730.94 511.21,732.443 537.495,737.556C594.854,748.714 669.449,776.114 692.632,780.368Z" transform="matrix(1,0,0,1,-290.802,-185.527)" style="fill: inherit;"/><path d="M688.055,807.846C692.031,809.768 693.699,814.555 691.778,818.53C689.857,822.506 685.07,824.174 681.094,822.253C670.069,816.925 650.401,816.689 627.929,818.45C571.954,822.837 499.492,841.42 488.806,844.156C482.073,845.881 468.623,849.816 460.072,855.893C457.525,857.703 455.165,859.386 454.921,861.777C454.824,862.726 455.341,863.656 456.119,864.734C457.188,866.216 458.747,867.721 460.804,869.316C464.293,872.022 464.929,877.052 462.223,880.541C459.517,884.03 454.488,884.665 450.999,881.959C440.957,874.171 438.355,866.514 439.004,860.154C439.657,853.75 443.983,847.698 450.804,842.851C460.963,835.632 476.838,830.705 484.837,828.657C495.731,825.867 569.614,806.971 626.679,802.499C652.654,800.464 675.312,801.688 688.055,807.846Z" transform="matrix(1,0,0,1,-290.802,-185.527)" style="fill: inherit;"/><path d="M700.59,835.047C704.58,833.157 709.354,834.861 711.245,838.851C713.135,842.841 711.431,847.616 707.441,849.506C698.652,853.67 680.201,870.143 656.307,889.699C618.673,920.501 568.356,958.779 521.354,973.241C496.561,980.87 477.75,985.739 463.484,991.173C450.941,995.952 442.215,1000.96 436.386,1009.6C428.032,1021.98 425.392,1040.92 424.205,1073.6C423.704,1087.38 416.264,1106.92 403.36,1126.33C384.499,1154.7 354.135,1182.84 319.277,1192.45C315.02,1193.63 310.612,1191.13 309.437,1186.87C308.263,1182.61 310.766,1178.2 315.022,1177.03C346.235,1168.42 373.147,1142.88 390.036,1117.47C400.966,1101.03 407.791,1084.69 408.215,1073.02C409.562,1035.96 413.648,1014.69 423.122,1000.65C430.665,989.468 441.554,982.406 457.789,976.222C472.301,970.694 491.427,965.709 516.649,957.949C561.83,944.047 609.997,906.927 646.174,877.318C671.488,856.599 691.279,839.459 700.59,835.047Z" transform="matrix(1,0,0,1,-290.802,-185.527)" style="fill: inherit;"/><path d="M687.694,824.189C692.107,824.046 695.805,827.514 695.947,831.927C696.09,836.34 692.622,840.038 688.209,840.18C676.511,840.558 624.125,853.256 566.967,909.955C540.215,936.492 518.93,944.695 498.485,954.359C479.72,963.23 461.792,973.537 440.525,1003.57C437.974,1007.18 432.977,1008.03 429.373,1005.48C425.77,1002.93 424.916,997.929 427.467,994.326C451.005,961.083 470.878,949.712 491.648,939.894C510.738,930.87 530.719,923.375 555.699,898.596C617.611,837.181 675.022,824.597 687.694,824.189Z" transform="matrix(1,0,0,1,-290.802,-185.527)" style="fill: inherit;"/><path d="M327.446,1155.17C332.763,1147.76 336.45,1140.51 340.637,1133.21C332.625,1132.8 334.733,1132.77 333.228,1132.69C326.27,1132.33 305.341,1129.79 298.382,1129.42C294.655,1129.22 291.559,1126.48 290.921,1122.8C290.282,1119.12 292.271,1115.49 295.713,1114.05C302.908,1111.04 344.368,1097.25 383.131,1077.12C407.917,1064.24 431.723,1048.89 443.72,1031.89C448.141,1025.63 455.661,1010.84 466.928,996.164C479.075,980.341 495.43,964.846 516.424,958.609C520.656,957.351 525.113,959.767 526.371,963.999C527.628,968.232 525.213,972.689 520.98,973.946C503.318,979.194 489.839,992.595 479.62,1005.91C468.522,1020.36 461.146,1034.95 456.792,1041.12C443.598,1059.81 417.765,1077.16 390.507,1091.32C370.723,1101.59 350.251,1110.25 333.866,1116.7C333.935,1116.71 334.003,1116.71 334.069,1116.71C336.116,1116.82 331.424,1116.84 355.128,1117.85C358.071,1117.97 360.706,1119.7 361.989,1122.36C363.272,1125.01 362.994,1128.15 361.266,1130.53C352.86,1142.13 348.532,1153.34 340.127,1164.94C339.503,1165.8 327.091,1177.03 320.034,1187.11C317.502,1190.73 312.509,1191.61 308.892,1189.08C305.275,1186.55 304.394,1181.55 306.926,1177.94C313.599,1168.4 324.777,1157.85 327.446,1155.17Z" transform="matrix(1,0,0,1,-290.802,-185.527)" style="fill: inherit;"/><path d="M695.034,847.655C695.346,843.25 699.175,839.928 703.58,840.24C707.984,840.553 711.306,844.382 710.994,848.786C709.268,873.139 702.098,1012.33 693.823,1047.27C680.913,1101.77 664.972,1124.39 642.682,1154.11C640.033,1157.64 635.015,1158.36 631.482,1155.71C627.95,1153.06 627.233,1148.04 629.882,1144.51C650.943,1116.43 666.056,1095.08 678.253,1043.58C686.421,1009.09 693.33,871.692 695.034,847.655Z" transform="matrix(1,0,0,1,-290.802,-185.527)" style="fill: inherit;"/><path d="M737.012,846.073C737.15,841.66 740.844,838.189 745.258,838.327C749.671,838.465 753.142,842.16 753.004,846.573C751.941,880.59 747.613,999.218 751.276,1031.81C754.542,1060.88 764.847,1090.37 769.745,1099.83C776.06,1112.04 783.824,1121.8 797.459,1134.06C800.742,1137.02 801.011,1142.08 798.059,1145.36C795.107,1148.64 790.044,1148.91 786.761,1145.96C771.349,1132.1 762.674,1120.98 755.535,1107.19C750.233,1096.94 738.912,1065.07 735.376,1033.6C731.668,1000.6 735.936,880.51 737.012,846.073Z" transform="matrix(1,0,0,1,-290.802,-185.527)" style="fill: inherit;"/><path d="M650.042,1118.14C654.453,1118.32 657.891,1122.05 657.714,1126.46C657.537,1130.87 653.812,1134.31 649.4,1134.13C615.591,1132.78 581.058,1142.35 561.671,1157.42C553.588,1163.7 548.154,1170.77 547.998,1178.62C547.838,1186.63 553.231,1194.68 564.497,1203.02C572.159,1208.7 586.889,1213.38 605.845,1217.3C636.088,1223.57 676.665,1227.39 718.025,1227.79C759.308,1228.18 801.378,1225.18 834.701,1217.7C855.856,1212.95 873.391,1206.52 884.455,1197.72C896.36,1188.26 900.296,1172.49 888.557,1159.36C874.124,1143.2 840.395,1131.35 778.89,1132.72C774.476,1132.82 770.813,1129.31 770.715,1124.9C770.617,1120.48 774.121,1116.82 778.535,1116.72C827.286,1115.64 859.993,1122.96 880.443,1133.64C895.618,1141.56 904.495,1151.49 908.718,1161.49C916.226,1179.28 909.721,1198.07 894.413,1210.25C881.875,1220.21 862.178,1227.93 838.206,1233.31C803.837,1241.03 760.451,1244.2 717.871,1243.79C668.194,1243.31 619.624,1237.96 587.755,1229.49C573.064,1225.59 561.742,1220.89 554.974,1215.88C538.128,1203.4 531.762,1190.28 532.001,1178.3C532.243,1166.18 539.371,1154.49 551.85,1144.79C573.582,1127.89 612.145,1116.62 650.042,1118.14Z" transform="matrix(1,0,0,1,-290.802,-185.527)" style="fill: inherit;"/><path d="M668.707,1177.8C664.429,1176.71 661.842,1172.35 662.934,1168.07C664.027,1163.79 668.387,1161.21 672.665,1162.3C680.344,1164.26 732.876,1186.38 776.503,1164.57C780.453,1162.6 785.262,1164.2 787.237,1168.15C789.211,1172.1 787.608,1176.9 783.659,1178.88C735.371,1203.02 677.206,1179.97 668.707,1177.8Z" transform="matrix(1,0,0,1,-290.802,-185.527)" style="fill: inherit;"/><path d="M558.71,1170.87C558.445,1166.46 561.807,1162.66 566.215,1162.4C570.622,1162.13 574.416,1165.5 574.681,1169.9C575.124,1177.26 576.887,1182.7 580.481,1186.62C584.198,1190.68 589.656,1193.03 596.615,1194.7C622.306,1200.9 630.507,1200.91 663.478,1202.9C667.885,1203.16 671.247,1206.96 670.981,1211.36C670.715,1215.77 666.921,1219.13 662.514,1218.87C628.166,1216.79 619.63,1216.71 592.866,1210.26C582.31,1207.71 574.323,1203.59 568.685,1197.43C562.922,1191.14 559.421,1182.65 558.71,1170.87Z" transform="matrix(1,0,0,1,-290.802,-185.527)" style="fill: inherit;"/><path d="M870.098,1171.27C868.666,1167.09 870.894,1162.54 875.071,1161.11C879.248,1159.67 883.801,1161.9 885.233,1166.08C889.442,1178.36 883.449,1188.48 871.091,1195.83C850.081,1208.34 808.608,1212.52 804.055,1213.17C799.684,1213.79 795.629,1210.75 795.004,1206.38C794.38,1202.01 797.422,1197.95 801.793,1197.33C805.393,1196.81 834.091,1194.18 854.421,1186.15C859.18,1184.27 863.452,1182.12 866.612,1179.52C869.387,1177.24 871.261,1174.66 870.098,1171.27Z" transform="matrix(1,0,0,1,-290.802,-185.527)" style="fill: inherit;"/><path d="M769.395,795.88C767.201,799.027 762.987,800.223 759.407,798.524L756.728,796.498L755.574,794.774L754.891,792.816L754.83,789.74L755.385,787.849L756.302,786.208C757.042,785.158 759.435,782.917 763.436,780.706C769.697,777.248 780.89,772.625 792.211,771.21C863.744,762.269 911.854,744.249 947.981,738.507C967.814,735.354 984.338,735.83 999.16,742.334C1013.94,748.818 1027.22,761.35 1040.13,783.294C1051.24,802.177 1059.52,836.056 1055.16,860.661C1051.76,879.848 1041.2,893.689 1021.12,894.848C958.844,898.44 892.556,858.166 870.949,848.822C821.872,827.6 821.827,823.562 768.184,828.127C763.785,828.501 759.909,825.234 759.534,820.834C759.16,816.435 762.428,812.559 766.827,812.185C824.464,807.279 824.569,811.334 877.3,834.137C897.899,843.044 960.828,882.299 1020.2,878.874C1032.05,878.191 1037.4,869.189 1039.4,857.869C1043.15,836.723 1035.88,807.635 1026.34,791.406C1015.62,773.184 1005,762.369 992.73,756.985C980.507,751.622 966.848,751.709 950.493,754.308C914.245,760.07 865.967,778.115 794.196,787.087C784.483,788.301 772.434,794.302 769.395,795.88ZM768.229,785.385C767.689,784.885 767.043,784.438 766.267,784.069C767.001,784.418 767.658,784.864 768.229,785.385Z" transform="matrix(1,0,0,1,-290.802,-185.527)" style="fill: inherit;"/><path d="M768.435,825.915C764.388,827.682 759.669,825.832 757.902,821.785C756.135,817.739 757.985,813.019 762.032,811.252C782.592,802.274 818.965,800.44 857.873,803.731C915.452,808.601 978.499,824.457 1002.83,841.487C1006.05,843.743 1017.89,854.05 1022.09,863.877C1024.8,870.216 1024.72,876.428 1021.19,881.568C1017.56,886.851 1008.38,892.085 988.635,892.085C984.22,892.085 980.635,888.5 980.635,884.085C980.635,879.669 984.22,876.085 988.635,876.085C995.401,876.085 1000.44,875.532 1004.1,874.449C1005.99,873.89 1007.36,873.448 1008,872.512C1008.24,872.165 1007.93,871.766 1007.81,871.344C1007.46,870.124 1006.81,868.891 1006.05,867.664C1002.28,861.613 995.649,855.993 993.652,854.594C970.669,838.507 910.918,824.274 856.524,819.674C820.784,816.651 787.322,817.668 768.435,825.915Z" transform="matrix(1,0,0,1,-290.802,-185.527)" style="fill: inherit;"/><path d="M752.046,837.76C750.667,833.566 752.952,829.04 757.146,827.661C761.34,826.281 765.866,828.566 767.245,832.76C770.699,843.26 779.713,852.302 789.47,861.819C800.659,872.731 812.931,884.022 821.497,897.329C858.953,955.513 901.434,959.779 939.087,961.782C967.344,963.285 993.079,964.179 1013.35,980.398C1044.68,1005.46 1048.34,1036.51 1052.13,1069.89C1054.67,1092.28 1057.38,1115.78 1071.53,1138.7C1085.75,1161.74 1111.47,1184 1159.28,1204.44C1163.34,1206.17 1165.23,1210.88 1163.49,1214.94C1161.76,1219 1157.05,1220.89 1152.99,1219.15C1100.98,1196.92 1073.39,1172.17 1057.92,1147.11C1042.38,1121.94 1039.03,1096.27 1036.24,1071.7C1032.92,1042.47 1030.78,1014.83 1003.36,992.892C985.654,978.73 962.912,979.071 938.237,977.759C896.494,975.539 849.569,970.496 808.044,905.99C798.436,891.065 783.664,879.014 771.852,866.838C762.825,857.532 755.441,848.08 752.046,837.76Z" transform="matrix(1,0,0,1,-290.802,-185.527)" style="fill: inherit;"/><path d="M766.122,834.462C761.715,834.189 758.359,830.39 758.632,825.983C758.906,821.576 762.705,818.22 767.112,818.493C786.795,819.713 801.508,829.313 814.485,842.98C826.184,855.3 836.456,871.052 848.386,885.964C866.277,908.328 892.695,919.986 920.04,930.903C949.474,942.654 980.002,953.484 1003.94,973.262C1007.35,976.074 1007.83,981.121 1005.02,984.525C1002.2,987.929 997.158,988.41 993.754,985.598C971.07,966.859 941.995,956.896 914.107,945.762C884.13,933.794 855.506,920.477 835.892,895.959C824.257,881.416 814.292,866.012 802.883,853.997C792.752,843.328 781.487,835.415 766.122,834.462Z" transform="matrix(1,0,0,1,-290.802,-185.527)" style="fill: inherit;"/><path d="M934.459,978.267C930.853,975.72 929.994,970.723 932.541,967.117C935.089,963.511 940.085,962.652 943.691,965.199C960.769,977.264 991.868,994.367 1065.5,1127.99C1067.63,1131.86 1066.22,1136.73 1062.35,1138.86C1058.49,1140.99 1053.62,1139.58 1051.49,1135.71C980.442,1006.78 950.937,989.908 934.459,978.267Z" transform="matrix(1,0,0,1,-290.802,-185.527)" style="fill: inherit;"/><path d="M1035.56,1063.74C1034.01,1059.61 1036.1,1054.99 1040.23,1053.44C1044.36,1051.88 1048.98,1053.97 1050.54,1058.11C1053.77,1066.7 1064.5,1077.46 1079.01,1089.67C1102.6,1109.52 1136.24,1132.18 1168.72,1152.92C1171.69,1154.81 1173.07,1158.42 1172.12,1161.81C1171.18,1165.2 1168.13,1167.57 1164.61,1167.66C1152.63,1167.95 1143.49,1167.17 1132.98,1165.11C1153.53,1192.4 1162.38,1203.95 1165.03,1208.12C1167.41,1211.84 1166.31,1216.79 1162.59,1219.16C1158.86,1221.54 1153.91,1220.44 1151.54,1216.71C1148.42,1211.82 1136.56,1196.57 1106.79,1156.88C1104.74,1154.15 1104.65,1150.42 1106.56,1147.59C1108.48,1144.77 1111.98,1143.46 1115.27,1144.36C1122.03,1146.18 1127.75,1147.65 1133.02,1148.78C1103.52,1129.17 1075.58,1109.02 1057.35,1091.85C1046.15,1081.3 1038.52,1071.59 1035.56,1063.74Z" transform="matrix(1,0,0,1,-290.802,-185.527)" style="fill: inherit;"/></g></svg>