
<svg xmlns="http://www.w3.org/2000/svg" xmlns:xlink="http://www.w3.org/1999/xlink" preserveAspectRatio="xMidYMid meet" version="1.0" viewBox="-10.5 -1.3 205.5 307.4" zoomAndPan="magnify" style="fill: rgb(178, 93, 127);" original_string_length="4311" width="56.88147278731117px" height="84.78268301631743px"><g id="__id4_s6adhr1mo"><path d="M176.169708,38.6278C163.80838,19.067741,135.454865-1.322396,93.125763,0.067252 C54.766388,1.332877,25.49588,16.225945,10.716584,42.003288C-3.159393,66.205437-10.487517,112.052605,33.3992,193.022812 c9.004883,16.617798,20.878418,34.587402,32.696289,50.936401c-14.350586,3.523804-29.164062,11.460327-33.041016,22.636368 c-2.522461,7.268555-0.382812,14.825684,6.356445,22.459473C49.675568,300.69519,70.18338,306.045288,91.148224,306.0448 c19.444336,0,39.282227-4.603516,51.697266-13.059082c11.558594-7.872559,14.891602-18.129883,9.385742-28.883301 c-3.59082-7.005127-16.564941-15.938248-28.643066-20.081558c22.320312-35.441895,52.602539-87.554199,60.459473-117.827141 C189.207794,106.306023,195.046661,68.483757,176.169708,38.6278z M146.891388,266.837769 c4.063477,7.937012,1.566406,15.065918-7.423828,21.188965c-23.458984,15.978027-77.820312,17.172363-95.557617-2.941406 c-5.201172-5.89209-6.947266-11.451172-5.1875-16.523438c3.32666-9.588013,18.162598-16.588394,31.226074-19.324356 c8.862305,12.016495,17.512207,22.930557,24.70166,31.468887c0.570312,0.677734,1.411133,1.067871,2.294922,1.067871 c0.021484,0,0.043945-0.000488,0.06543-0.000977c0.908203-0.019531,1.757812-0.449707,2.311523-1.168945 c2.550293-3.31311,10.658203-15.188721,20.955078-31.355484C132.521271,253.026962,144.462189,262.098999,146.891388,266.837769z M178.239044,124.686394c-11.052734,42.58886-67.636719,129.635742-81.456055,149.213379 c-17.524414-21.1548-42.3125-54.585464-58.108398-83.735855C4.979279,127.997429-2.887908,77.796257,15.922639,44.987175 C29.628693,21.080437,57.116974,7.257194,93.323029,6.064322c1.321289-0.043945,2.621094-0.06543,3.912109-0.06543 c37.665039,0,62.769531,18.280273,73.862305,35.834473C188.766388,69.778191,183.156036,105.73864,178.239044,124.686394z M99.412872,19.374382c-4.012695-0.523926-17.626953-0.711914-32.237305,4.634766 C47.636505,31.15905,33.65799,45.591179,26.74881,65.743523c-8.540039,24.891602-6.475586,48.557617,5.814453,66.637688 c12.189453,17.933105,33.262695,28.474121,59.339844,29.682129c1.130859,0.052734,2.255859,0.078613,3.37793,0.078613 c18.448242,0,35.616211-7.045898,48.650391-20.043457c12.556641-12.521973,20.674805-30.012199,22.271484-47.985832 C168.87381,64.046257,152.986115,26.431511,99.412872,19.374382z M160.226349,93.581413 c-2.81543,31.688477-27.606445,64.343254-68.045898,62.488762c-24.143555-1.118652-43.553711-10.729492-54.655273-27.062012 c-11.202148-16.479485-13.013672-38.255852-5.100586-61.318352c16.018555-46.722656,65.71582-42.430664,66.208008-42.366699 C147.993927,31.826042,162.662872,66.157585,160.226349,93.581413z M105.196075,57.180534 c-5.795898,2.069824-10.070312,6.003418-12.347656,11.187012c-3.314453-4.337402-9.097656-9.581055-18.619141-10.225098 c-10.44043-0.705078-18.791016,3.729492-22.90332,12.152344c-4.536133,9.287598-2.818359,21.242676,4.175781,29.073242 c10.074219,11.274414,28.347656,22.344727,36.151367,27.071777c1.193359,0.723145,2.108398,1.276855,2.662109,1.633293 c0.495117,0.319336,1.05957,0.478516,1.625,0.478516c0.577148,0,1.15332-0.166016,1.655273-0.498047 c9.074219-6.00341,38.847656-27.199211,40.998047-47.901848c0.699219-6.728027-1.515625-12.740723-6.584961-17.872559 C125.793732,55.996941,114.517365,53.851921,105.196075,57.180534z M132.625763,79.531609 c-1.793945,17.270508-28.21875,36.62207-36.753906,42.450195c-0.337891-0.206055-0.708984-0.430664-1.110352-0.673828 c-7.573242-4.587891-25.30957-15.33252-34.785156-25.9375C54.6492,89.407097,53.279083,79.96862,56.71756,72.927605 c2.80957-5.75293,8.231445-8.85791,15.374023-8.85791c0.567383,0,1.146484,0.019531,1.735352,0.059082 c10.566406,0.714844,15.15332,8.898438,16.879883,11.979004c0.62793,1.120117,1.679688,2.997559,3.931641,2.521973 c1.334961-0.279297,2.287109-1.367676,2.426758-2.785156c0.797852-8.45459,6.701172-11.782227,10.148438-13.013184 c7.118164-2.543945,15.945312-0.966309,20.52832,3.666016C131.539825,70.342644,133.137482,74.606316,132.625763,79.531609z" style="fill: inherit;"/></g></svg>