
<svg xmlns="http://www.w3.org/2000/svg" xmlns:xlink="http://www.w3.org/1999/xlink" preserveAspectRatio="xMidYMid meet" version="1.0" viewBox="9.7 67.5 483.7 365.0" zoomAndPan="magnify" style="fill: rgb(0, 0, 0);" original_string_length="3735" width="156.64528887444484px" height="118.19599069617199px"><g id="__id10_s6adhr1mo"><path d="M346.74,256.92c-.18.11-.38.22-.56.33-.4.23-.66.63-.71,1.08-6.32,59.74-48.75,97.01-103.59,97.01s-104.25-47.47-104.25-105.83,48.09-98.29,104.25-102.88c27.86,0,53.82,10.46,72.88,27.88h.02c.88-.05,1.3-1.12.67-1.74-20.3-20.03-47.97-31.17-76.5-30.44-11.68.3-23.5,2.59-35.02,7.06-23.86,9.27-40,28.08-54.17,47.42-19.27,26.31-18.43,60.08-6.73,91.1,4.27,11.32,14.67,26.8,21.93,35.62,28.15,34.23,74.58,42.75,117.83,25.94,37.41-14.54,58.71-48.2,63.66-85.93.28-2.12.49-4.25.64-6.4.01-.19-.2-.32-.36-.22Z" style="fill: rgb(178, 93, 127);"/></g><g id="__id11_s6adhr1mo"><path d="M420.84,249.18c0-78.96-49.89-146.32-119.35-171.3-18.65-6.71-38.72-10.36-59.61-10.36-43.26,0-80.02,19.82-113.97,41.7-46.18,29.76-64.99,83.71-64.99,139.96,0,20.53,7.22,51.4,13.44,69.83,24.1,71.45,92.45,113.47,170.9,113.47,67.84,0,121.61-40.15,151.95-96.78,13.79-25.74,21.63-55.22,21.63-86.52ZM241.88,425.39c-95.72,0-173.58-79.04-173.58-176.2S148.37,85.53,241.88,77.89c95.72,0,177.94,74.11,173.58,171.29-4.84,108.01-77.87,176.2-173.58,176.2Z" style="fill: rgb(178, 93, 127);"/></g><g id="__id12_s6adhr1mo"><path d="M460.26,144.25c-.11,12.28.74,28.6-.99,34.42-1.48,1.94-4.17-.87-4.28-2.84-1.32-8.33,1.16-36.88,1.62-45.11-.08-5.17.55-16.42-5.38-17.53-5.24-.47-6.43,6.07-6.29,10.11-.46,13.14-.37,47.49-2.17,54.18-.32,1.04-1.42,1.08-2.21.56-2.27-1.34-1.5-5.34-1.6-8.86.24-13.64,2.97-35.63,2.43-48.87-.95-7.98-6.99-3.97-8.43,1.29-2.51,9.16-5.73,50.08-5.83,66.22-.47,6.53,2.24,14.8,6.45,20.51,4.54,6.83,12.73,11.98,17.84,18.67.94,12.36,6.1,152.33,7.82,165.73,5.4,21.55,23.48,24.69,26.65,3.33l.04-.24c-3.15-43.48-17.13-153.1-16.34-168.91.92-4.08,4.49-7.65,7.69-10.49,16.18-12.94,10.69-35.57,10.54-53.87-.11-7.95,3.67-44.31-5.16-46.09-6.32,1.07-5.53,24.39-6.01,29.93-.12,8.97.13,24.7-.43,29.97-.09.93-.52,1.79-1.53,1.57-1.31-.2-2.79-2.03-2.97-3.64-.67-4.79-.21-17.03.08-24.74-.19-10.51,3.68-22.76-.13-32.35-1.25-2.61-4.56-3.17-6.55-1.04-6.57,7.66-4.35,18.73-4.86,28.08ZM461.55,180.09c1.14-1.85,1.15-4.18,1.38-7.56.84-17.93-1.91-37.21,2.83-54.62,1.73-3.84,4.73-2.29,4.94,1.44.52,10.15-1.86,20.16-1.87,29.97-.47,11.39-.87,28.64,4.48,31.48,8.6,2.97,5.47-26,6.3-28.97.54-9.7-.53-23.29,1.47-32.76,1.01-2.88,3.18-.34,3.76,1.36,3.06,9.82.96,23.05,1.2,33-1.72,19.28,4.88,44.18-9.38,59.12-2.61,2.82-7.21,6.27-8.76,9.38-1.37,3.78-1.26,8.81-1.1,17.08,2.15,57.43,15.91,116.18,15.12,162.2-.38,2.39-1.95,4.47-4.11,5.69-7.18,4.17-15.21-8.82-15.87-16.8l-.03-.25c-2.66-41.84-5.09-148.48-8.14-163.54-6.01-11.63-21.91-18.15-23.47-33.21-.92-3.33,1.31-81.34,8.66-72.94,2.9,14.7-6.39,40.5-2.02,56.81,3.25,7.52,8.35,3.23,8.89-3.02,1.13-12.47,1.2-30.28,1.88-43.36.2-5.26.26-7.07.36-10.05.03-1.38.38-5.09,1.88-5.68,9.44,2.42-2.51,56.19,3.91,64.7,1.49,2.71,6,3.54,7.7.56Z" style="fill: rgb(178, 93, 127);"/></g><g id="__id13_s6adhr1mo"><path d="M29.27,251.91c.2,11.68-2.51,140.34-1.64,153.05,3.88,20.58,20.72,24.54,24.89,4.61l.05-.22c-.55-41.09-7.83-141.68-6.21-156.51,1.09-3.79,12.6-65.04,13.47-82.27.34-7.48,5.08-61.26-3.13-63.42l-40.58,66.56c-5.6,14.5-6.38,40.7-2.73,46.31,3.9,6.68,11.43,25.31,15.87,31.89ZM15.55,189.83c.22-2.64,3.64-16.48,4.88-18.83l38.12-60.03c2.33,9.41.45,41.51.12,50.88-2.69,18.05-11.99,83.32-13.61,86.16-1.5,3.48-1.67,8.22-1.98,16.01-1.17,54.16,8.73,106.87,5.43,150.13-.49,2.23-2.08,4.1-4.19,5.13-6.99,3.53-13.82-9.15-14-16.69v-.24c-.2-39.52,3.23-136.67,1.2-151.01-4.71-10.59-17.86-38.23-15.96-61.53Z" style="fill: rgb(178, 93, 127);"/></g></svg>