<svg xmlns="http://www.w3.org/2000/svg" xmlns:xlink="http://www.w3.org/1999/xlink" preserveAspectRatio="xMidYMid meet" version="1.0" viewBox="-0.0 -0.3 177.4 311.6" zoomAndPan="magnify" style="fill: rgb(178, 93, 127);" original_string_length="22956" width="83.53133938951026px" height="147.25075853920077px"><g id="__id5_s6adhr1mo"><path d="M.03,27.96c-.06-.06-.02-.75.11-.97.37-.61,1.07-.62,1.66-.74.92-.19,2.2-.37,3.14-.46,17.97-1.64,35.82-3.16,53.98-4.06.27-.01.44-.25.7-.26,1.79-.08,3.68.24,5.4-.23l-1.83-.69c-5.31-1.16-15.2-3.99-15.93-10.45-.21-1.9.65-4.33,2.17-5.53,2.64-2.09,6.04-2.38,9.24-1.81,8.76,2.03,16.7,6.74,23.74,12.24.51.12.27-.19.47-.48.9-1.31,2.13-1.7,3.58-1.94.11-.02.19-.17.3-.18,1.21-.16,2.33.5,3.1,1.4l.47,1.69,2.76-2.52c6.69-5.6,14.19-10.78,22.94-12.56,3.52-.71,8.16-.69,11.12,1.77,1.2,1,2.34,3.48,2.17,5.05-.87,7.82-13.69,12.17-20.25,13.57l-1.35.45c7.94.18,15.93-.24,23.87,0,.27,0,.43.25.7.26,10.52.38,21.5.39,31.7,2.12,1.43.24,2.8.4,4.16.99-.15.42.3.83.24,1.05-.04.15-.32.31-.45.53-.06.11.01.28-.03.33-.23.26-1.46-.2-1.79-.24-.83-.12-1.81-.14-2.65-.22-.47-.05-.81-.68-.6.6.08.47.45,1.21.5,1.66.3,2.7.14,7.51,0,10.33-.13,2.64-.14,5.53-.02,8.4.42,10.02.28,20.16.48,30.22.32,16.24,1.28,32.41,1.92,48.68.32,8.19.41,16.55.72,24.94.62,16.5,1.22,33.81,2.88,50.37.33,3.26,1.23,6.73.97,10.07-.1,1.25-1.01.84-1.18.22-.07-.26.01-.59-.05-.91-.3-1.68-.66-3.37-.94-5.06-2.31-14.24-3.31-28.66-4.08-43.17-.31-5.92-.3-11.59-.46-17.52-.46-17.29-1.51-34.87-2.16-52.29-.14-3.89-.44-8.57-.43-12.7.03-11.54-.2-23.68-.55-35.49-.16-5.29.57-10.36.24-15.59-.05-.72.18-2.57-.11-3.01-.21-.33-1.97-.31-2.04-.24-.08.08-.04,1.93,0,2.29.45,5.91.67,11.81.96,17.75.16,3.31.08,6.73.24,10.07.27,5.47.17,11.34.24,17.03.42,36.61,1.74,73.57,4.56,109.85.52,6.74.91,13.61,1.46,20.37.11,1.35-.2,4.66-.51,5.98-.05.21-.32.54-.43.78-.09.2.08.3-.15.33-.31.04-.82.05-1.08-.12-.15-.1-.45-.95-.48-1.19-.19-1.53.11-3.46.02-5.05-.05-.86-.42-2.22-.5-3.1-2.07-22.69-3.79-45.41-4.8-68.35-.67-15.1-1.07-30.12-1.42-45.35-.24-10.58-.57-22.33-.26-34.06.05-1.81.31-3.66.26-5.76-.16-5.99-.64-12.69-.24-18.93.06-.91-.06-1.85,0-2.77h-66.2s1.4,2.79,1.4,2.79c1.97,5.66.9,12.32,3.19,17.92.24.59.65,1.6,1.4,1.59.02-.36.38-.92.6-1.2.67-.86,2.6-2.63,3.62-2.85.32-.07.64.02.94-.02.27-.03.4-.21.51-.23.17-.03,1.31.42,1.53.58,1.04.71,1.34,2.38,1.41,3.58-.62,2.79-2,4.29-4.68,5.15-.37.12-.79-.11-1.04.4.1,1.71-.16,3.6-.02,5.28.02.26.21.4.22.5.29,2.17.36,2.62,1.59,4.41,1.98,2.88,4.6,5.16,7.44,7.19.82,1.18.22,2.07-1.19,1.67-.21-.06-.4-.46-.61-.59-.54-.33-1.16-.58-1.68-.96-2.47-1.8-6.69-5.8-8.12-8.43-1.27-2.32-2.65-6.85-1.97-9.35.23-.83-1.11-1.23-1.66-1.66-2-1.57-3.35-5.71-3.84-8.15-.99-4.88-.33-11.68-2.99-15.96-.15-.25-1.02-1.54-1.32-1.2-.02.02-.02.3-.23.61-5.42,7.66-3.73,15.69-7.24,23.46-.19.41-1.13,1.84-1.13,1.95,0,.06.21.22.22.48.02,1.53.13,3.33-.28,4.77-.95,3.38-3.82,6.22-5.21,9.42-1.62,3.72-2.23,7.22-3.12,11.03-.12.53.07.74-.5,1.17-.46.35-.94.28-1.45,0-.76-.42-.8-1.87-.72-2.65.41-4.1,2.13-11.36,4.12-15.07.52-.97,1.34-1.97,1.86-2.94.4-.75,1.11-2.06,1.23-2.84.07-.45-.02-.35-.36-.36-.47-.02-1.01.06-1.45,0-1.23-.15-2.57-1.38-2.96-2.55-.05-.15-.22-.83-.24-.96-.08-.56-.1-1.56,0-2.1,0-.04.22-.69.24-.72.13-.26.41-.4.58-.62.14-.17.09-.42.13-.47.05-.05.23.02.31-.04.91-.67.89-.54,1.92-.72.11-.02.25-.18.5-.22.52-.07,1.9.41,2.05.25.05-.06-.05-.43,0-.61,1.3-5.85,1.97-11.79,4.12-17.47l1.64-3.27c-1.96.05-3.93-.06-5.88,0-17.95.52-35.84,1.74-53.71,2.42-.72.03-4.52-.17-4.69,0-.05.05-.04,1.1,0,1.33.42,3.4.33,6.86.48,10.31.31,6.94.79,14.06.5,21.1-.26,6.19-.04,13.7.24,20.37.09,2.21-.21,4.31-.26,6.24-.38,15.68-.93,31.35-.7,47.01.13,9.07-.58,18.89-.02,27.84.15,2.39.33,5.07.26,7.68-.32,11.38-.83,22.8-.26,34.3.08,1.67.42,3.59.5,5.26.14,3.28-.1,6.41.48,9.59.04.23-.07.79,0,.85.08.08,1.93.04,2.29,0,2.46-.19,4.97-.71,7.42-.98,18.75-2.07,37.67-3.24,56.62-4.3,16.11-.9,32.59-1.01,48.93-1.44,11.39-.3,23.68-.72,35.26-.25.31.01,1.1.27,1.43.27,2.76,0,5.95-.61,8.91-.03.27.05.49-.32.57-.22.04.05.04,1.13-.01,1.31-.16.58-2.23.81-2.87.85-.08.36.21.51.25.83.11.96-.22,1.7-.26,2.4-.13,2.48.03,4.68-.24,7.2-.03.26-.05,1.51,0,1.57.05.05.77-.03,1.06.02.13.02.31.31.61.22-.14.36.21.76.22.83,0,.07-.31.31-.21.59-.41-.06-.79.4-1.1.46-2,.44-4.16.17-6.22.25-2.28.09-4.9.44-7.18.5-3.71.1-7.45-.09-11.16,0-.07.35.2.5.25.83.97,6.07,3.37,12.77,5,18.74,4.16,15.26,7.84,30.52,11.33,45.99.51,2.26,1.34,4.72,1.66,6.98.1.69-.24,1.15-.25,1.8-.35-.14-.75.21-.83.21-.07,0-.87-.31-.97-.44-.51-.67-1.22-2.64-1.52-3.51-2.87-8.24-4.98-17.52-7.25-26.09-3.71-13.99-7.76-27.91-11.03-41.97-.77-1.44-.17-2.83-2.26-2.56-2.43.31-5.47.46-7.91.44-.07,0-.65-.38-.84-.19-.13.13.2,1.01.28,1.28,5.02,17.08,10.22,34.23,14.08,51.63.3,1.33,1.49,8.61,2.18,9.09.19.13.45.09.48.12.28.24-.3,1.7-.21,2.01.92,3.3,1.83,6.74,2.65,10.07.14.58.97,2.78.09,3.03-.39.11-.62-.06-.82-.38-.85-1.39-1.2-2.98-1.74-4.5-.45-1.3-.99-2.57-1.37-3.9-.06-.21,0-.52-.04-.56s-.22.04-.34-.02c-.1-.04-.17-.19-.28-.22-.21-.07-.4.26-.66.21-3.03-.55-6.91-.16-10.12-.21-12.31-.22-24.75-.61-37.16-.74-5.35-.06-10.74.18-16.08.02-2.57-.08-5.51-.35-8.4-.25-5.19.17-11.44.43-16.78.49-10.99.13-21.99-.11-32.98,0l-.51,2.25c-.73,2.35-1.52,4.7-2.34,7.02-.54,1.52-.88,3.11-1.74,4.5-.16.25-.25.38-.58.38-.79,0-.66-1.16-.57-1.77.17-1.16.85-2.52,1.14-3.66,2.98-11.5,5.16-22.83,8.15-34.3,2.81-10.79,5.74-21.76,9.12-32.38.43-1.36.69-2.91,1.26-4.26.21-.5.67-.83.69-1.35l-11.51.48c-.07.96.11,2.03-.03,2.97-.18,1.26-.84,3.08-1.14,4.38-1.73,7.43-3.85,14.65-5.81,22.01-3.73,13.98-7.26,28.04-11.52,41.73-.83,1.49-.87,3.71-3.08,3.03-.1-.75-.31-1.2-.22-2,.24-2.09,1.14-4.65,1.62-6.77,3.58-15.85,7.48-31.44,11.75-47.01,1.48-5.4,2.73-12.07,4.62-17.21.27-.74.96-1.05-.37-.84-3.36.52-6.91.46-10.35.68-2.76.18-4.88.5-7.66.24-.57-.05-1.44.13-1.92,0-.18-.05-.83-1.09-.86-1.3-.22-1.51,1.07-.95,1.21-1.09.02-.02.02-.44-.02-.58-.47-1.74-.3-4.36-.45-6.26-.02-.27-.24-.43-.26-.7-.05-.68.15-1.84,0-2.4-.11-.41-1.07-.4-1.44-.72-.1-.09-.46-.68-.46-.73,0-.05.33-.3.23-.59.42.06.79-.39,1.1-.46.56-.13,1.31.04,1.9-.01.27-.03.43-.24.7-.26.42-.03,2.21.09,2.29,0,.23-.22-.19-.96-.21-1.11-.62-5.24-1.1-10.51-1.48-15.79-3.38-46.97-1.12-95.05-2.14-142.48-.94-9.33-.5-18.87-.96-28.3-.02-.42-.23-1.24-.25-1.66-.04-.92.05-1.85,0-2.77-.83-.16-6.01.22-6.24,0ZM94.53,18.36c4.56-1.26,9.13-2.49,13.76-3.39,3.98-1.05,11.92-3.96,14.42-7.16.12-.16.64-.95.6-1.08-.28-.95-4.04-.93-4.93-.85-.26.02-.42.21-.7.26-7.84,1.25-14.61,5.93-21,10.42l-2.16,1.8ZM77.02,16.92c-.39,0-.72-.3-1.05-.51-3-1.93-6.15-3.76-9.42-5.21s-8.34-3.38-11.73-2.92c-.47.06-.81.52-1.31.49.13.22.23.56.35.73,2.12,2.84,13.12,5.33,16.76,6.26,1.77.45,3.78,1.13,5.54,1.42.21.03.93.14.85-.25ZM12.02,27.96c-.13-.13-3.06,0-3.6,0-.23,0,.23,1.39.25,1.55.08.92-.07,1.96-.02,2.9.5,8.53.83,17.15,1.46,25.65.91,12.32,1.31,25.08,1.44,37.42.36,33.3-.53,66.67.7,99.79.26,7.05.35,14.22.74,21.33.03.54-.12,3.13,0,3.25.05.05,1.08.03,1.32,0,.2-.02.16-.86.13-1.09-.82-6.62-.8-13.67-1.2-20.39-.42-7.05-.21-14.43,0-21.33.16-5.28-.21-10.64-.26-15.83-.09-9.55.09-19.07-.22-28.56-.01-.36-.25-1.12-.26-1.43-.31-13.83.07-28.19.73-41.73.44-9.01-.58-17.9-.43-26.87.12-6.91.21-14.1-.04-21.11-.12-3.14-.6-6.45-.74-9.58-.03-.63.15-3.83,0-3.97ZM71.14,49.06v1.68c.21-.16.84-.93.84-1.08,0-.22-.7-.39-.84-.6ZM172.23,214.79s-.89-.04-1.09,0c-3.15.45-6.63.5-9.82.74-6.87.52-13.92.85-20.87.96-22.98.36-46.08.2-68.85,1.66-16.02,1.03-32.01,2.51-47.97,3.84-2.89.24-5.95.64-8.86.74-.84.03-5.43-.19-5.64,0-.06.05.22.33.25.59.25,2.68.27,5.56.22,8.16,0,.23-.03,1.05,0,1.09.05.05,1.1.04,1.33,0,12.32-1.51,24.92-2.24,37.4-2.9s24.79-1.05,37.19-1.66c7.58-.37,15.51-.85,23.01-.98,12.23-.2,24.49.3,36.71.02,7.97-.18,16.2.29,24.21-.26.45-.03,2.44.1,2.53,0,.04-.03.01-.62-.03-.81-.52-2.54-.27-7.43.02-10.11.03-.25.44-.88.25-1.07ZM131.22,230.14c-1.71.05-3.45-.07-5.16,0-.31.01-1.07.25-1.43.26-7.31.17-14.56,0-21.84.22-11.03.33-22.09,1.46-33.08,1.94-7.43.32-14.97.18-22.31.96-.34.04-1.48-.09-1.57,0-.1.08.19.24.22.4.05.25-.23.41-.24.68,0,.24.22.42.27.71.23,1.57-2.05,7.47-2.62,9.39-4.5,15.12-8.85,30.36-13.19,45.57-.06.21,0,.45-.06.66-.08.27-.57,1.21-.45,1.35.11.13.43-.41.62-.46,3.06-.85,7.93-.72,11.26-.97,16.35-1.25,33.09-1.07,49.41-1.44,9.75-.22,19.76-.55,29.5-.02,8.29.45,16.64,1.57,24.93,1.94.54.02,3.58.11,3.73,0,.05-.04-.39-.89-.45-1.11-5.42-18.96-10.44-38.04-16.37-56.78-.35-1.1-.91-2.13-1.17-3.26ZM150.41,296.1c.09-.08-.27-1.82-.61-1.91-.67-.18-2.27.05-3.12,0-11.63-.67-23.48-1.9-35-2.18-14.56-.35-29,.73-43.17.97-8.84.15-17.32-.25-26.16.22-3.15.17-6.43.52-9.58.74-1.16.08-1.72.01-2.76-.37s-.62,0-.75.69c-.05.24-.49.82-.09,1.11.19-.28.43-.23.72-.24,3.59-.21,7.41.09,11.05.01,6.16-.14,12.27-.59,18.45-.74,2.8-.07,5.79-.18,8.4-.24,7.68-.18,15.7-.3,23.03-.17,2.09.04,4.13.12,6.23.19,12.49.38,25.07.11,37.42.72,4.92.24,10.31.41,15.11,1.2.17.03.82.02.85,0Z" style="fill: inherit;"/><path d="M39.84,153.39c-.25-.29-1.31,1.07-1.81,1.18-.77.18-1.71-.57-2.15-1.18-.64-.9-.99-2.4-.84-3.49.12-.87,1.18-.76,1.57-.12.18.3.06.57.14.82.21.61.57,1.2.69,1.83.32.34,1.29-1.1,1.57-1.18.56-.16,1.56-.01,2.03.34.67.5,1.45,2.77,2.52,1.33.76-1.03.78-1.46,2.37-1.18.03,0,.59.21.61.23.04.04-.02.31.12.47.24.27.92,1.03,1.2.96.42-.12,1.42-1.82,2.64-1.93,1.13-.09,1.65,1.42,2.4,1.2.32-.09,1.24-1.44,2.19-1.65,1.32-.29,1.61.45,2.49,1.06.59.41,1.05.33,1.69,0,.39-.2.85-.74,1.19-.97.88-.61,1.85-1.15,2.98-.82.2.06,1.17.92,1.46.92.43,0,1.64-1.57,2.39-1.67.3-.04.89-.03,1.19.03.52.11,1.37,1.17,1.7,1.17.37,0,1.17-1.61,1.43-1.92.44-.51,1.49-.88,2.15-.7.28.08.73.87.98.94.72.21,1.65-1.37,2.27-1.8,1.47-1.01,2.46.21,3.76.81.66.31,1.47.7,2.16.96.51.19,2.36.44,2.48.88.27,1.01-.67,1.45-1.57,1.33-1.42-.2-3.35-.79-4.76-1.23-.21-.07-.7-.45-.75-.45-.19,0-1.64,1.82-2.03,2.04-.83.46-1.82.42-2.66,0-.18-.09-.24-.46-.59-.37-.14.04-1.41,2-1.93,2.14-.25.07-1.63.07-1.89,0-.24-.07-1.03-.88-1.23-.94-.34-.1-1.68,1.11-2.38,1.2-.4.06-1.25.04-1.66-.03-.36-.06-1.38-.68-1.47-.68-.21,0-1.85,1.35-2.27,1.55-.79.36-2.38.51-3.23.33-.45-.1-1.3-1.04-1.69-.93-.19.05-.6.66-.85.84-.73.52-2.13.82-2.99.58-.24-.07-.53-.64-.74-.7-.61-.18-1.59,1.09-2.38,1.2-.71.1-1.7.04-2.29-.36-.24-.17-.66-.79-.84-.84-.33-.09-1.14.85-1.45.94s-1.55.07-1.88,0c-.4-.08-1.69-1.28-1.95-1.65-.15-.21-.1-.47-.11-.49Z" style="fill: inherit;"/><path d="M129.53,126.28s-.01-.29.12-.47c.7-.98,2.19-1.02,2.89,0,.22.33-.08.55.47.49.6-.08,1.01-1.03,1.7-1.18,1.86-.4,2.09.66,3.22,1.54.19.15,1.49,1.04,1.58,1.07.25.07,1.06-.73,1.66.24.85,1.37-1.14,2.17-2.38,1.9-.29-.06-1.93-1.05-2.3-1.29-.22-.14-1.22-1.08-1.32-1.08-.1,0-.63.69-.84.84-.87.62-1.97.88-2.89.24-.19-.13-.45-.56-.6-.6-.25-.07-.81.55-1.22.69-.3.1-.78.03-1.15.26-.61-.12-1.6-1.19-1.7-1.19-.11,0-1.26,1.33-1.56,1.56-.59.45-.89.48-1.53.63-.11.03-.2.17-.3.18-.39.06-1.01.09-1.39,0-.45-.1-1.3-1.04-1.69-.93-.25.07-1.4,1.34-1.95,1.41-.53-.08-.93.32-1.42.27-.75-.07-1.38-.97-1.91-1.45-.7.44-1.99,1.98-2.66,2.13-.29.07-.59,0-.91.05-.12.02-.23.25-.49.2-.48-.09-1.03-.89-1.23-.95-.62-.18-.71.38-1.07.6-.88.54-1.72.75-2.77.6-.79-.11-1.57-1.21-1.67-1.21-.12,0-1.31,1.41-1.71,1.65-.73.44-2.03.4-2.74-.09-.25-.17-.96-1.08-1.07-1.08-.06,0-.62.62-.98.69-.84.18-1.81-.08-2.5-.57-.24-.17-.67-.79-.84-.84-.38-.11-.96.84-1.31,1.08-.91.62-2.33.56-2.86-.51-.1-.2-.48-1.42-.51-1.65-.22-1.59,1.92-1.51,1.71-.03.22.17.12.84.57.62.56-.27.91-1.35,1.31-1.57.14-.07.98-.37,1.09-.37.99,0,2.04,1.58,2.41,1.69.76.22.72-.54,1.06-.84.11-.1,1.26-.57,1.33-.57.03,0,.51.26.6.33.34.26,1.25,1.8,1.55,1.8.2,0,2.02-2.27,2.41-2.38.23-.07,1.18-.07,1.41,0,.6.17,1,1.68,1.69,1.67.51,0,1.36-.8,1.69-1.21.14-.17.09-.43.12-.47.03-.03.7-.24.82-.26.62-.08,1.08-.03,1.45.48s.16,1.19.95.96c.38-.11,1.73-1.94,2.28-2.28.29-.18.7-.12,1.06-.14.11,0,.19-.18.27-.18.03,0,.5.25.6.32.4.28,1.11,1.56,1.31,1.56.42,0,1.64-1.45,2.03-1.8.41,0,1.07-.37,1.33-.37.61,0,1.97,1.44,2.16,1.43.06,0,.14-.16.26-.2.15-.04.34.01.44-.04.71-.36,1.63-1.9,2.29-2.27.12-.07.74-.3.87-.33,1.37-.3,1.97,1.42,2.14,1.42.06,0,.13-.18.26-.23s.3.03.33-.02Z" style="fill: inherit;"/><path d="M44.86,101.57s-.3,0-.46.13-.3.38-.47.49c-.62.42-.92.29-1.57.35-.25.02-.41.21-.48.21-.12,0-1.13-.43-1.32-.55-.25-.17-.96-1.08-1.07-1.08-.11,0-.84,1-1.9.7-.17-.05-.25-.28-.37-.35-.19-.11-.44-.1-.47-.13-.05-.05.02-.23-.04-.31-.52-.71-1.31-2.53-1.42-3.38-.05-.43-.08-2.31.02-2.64.11-.4.93-.46,1.31-.36.64.18.25,1.88.39,2.49.24.35.77,2.31,1.05,2.3.17,0,.76-1.3,1.21-1.43,1.33-.37,1.38.66,1.9,1.43.12.17.35.3.49.48s.09.43.12.47c.02.03.46-.02.59.23.37-.49.89-.32.95-.95,1.31-1.05,1.31-2.57,3.34-2.14.45.1,1.3,1.04,1.69.93.11-.03,1.47-1.42,1.7-1.67.14-.16.08-.42.13-.47.03-.03.28-.02.47-.13.12-.07.2-.3.37-.35,1.69-.49,1.76,1.07,2.73,1.79.08.06.57.35.61.35.34,0,1.83-2.45,2.41-2.62,1.33-.38,1.92.36,2.89.68.19.06.44.02.67.05.11.02.19.18.26.18.55,0,1.43-1.52,2.39-1.66,1.6-.22,1.37.47,2.28,1.09.81.55,1.36.44,2.17,0,.34-.18,1.19-1.03,1.33-1.07.25-.07.6,0,.91-.04.12-.01.23-.25.48-.2.07.01.98.5,1.11.59.53.38.68,1.08,1.55.83.5-.14,1.35-1.97,1.94-2.13.23-.07.93-.06,1.19-.02.58.08,1.06.98,1.55,1.33.65.46,2.67,1.01,3.47,1.08.93.09,2.59-.21,3.35,0,.53.15.75,1.03.61,1.54-.18.65-1.61.03-2.28.12-1.61.21-4.41.07-5.96-.5-.4-.15-.98-.76-1.22-.69-.35.1-1.24,1.53-2.4,1.69-.54.07-1.66-.03-2.14-.27-.42-.21-.73-.78-1.23-.93-.25-.08-1.11.74-1.46.93-1.27.66-2.96.75-4.17-.09-.19-.13-.45-.56-.6-.6-.32-.09-1.14.85-1.45.94-.25.07-.94.24-1.17.27-.83.1-2.03-.27-2.86-.51-.14-.04-.22-.2-.27-.2-.21,0-.92,1.06-1.07,1.31-1.1.76-1.75,1.37-3.22,1.05-.78-.17-1.82-1.42-1.94-1.42-.08,0-.85.9-1.08,1.08-1.2.93-2.44,1.16-3.85.49-.12-.06-.25-.36-.35-.36-.08,0-1.03.99-1.21,1.19-.14.16-.08.42-.13.47Z" style="fill: inherit;"/><path d="M133.86,146.2c.25.25,1.3-.86,1.58-.94.24-.07,1.4-.07,1.65,0,.12.04,1.05.98,1.22,1.18.58.7,1.03,1.73,1.79,2.28.62.45,1.75.55,1.44,1.67-.13.47-1.35.43-1.78.34-.16-.03-1.14-.66-1.34-.82-.41-.32-2.12-2.28-2.28-2.27s-.69.53-.83.6c-1.15.58-2.49.51-3.25-.6-.14-.21-.1-.47-.11-.48-.07-.08-1.34.42-2.02.22-.09-.02-1.11-1.02-1.22-1.18-.15-.21-.09-.46-.11-.49-.07-.09-1.61,1.08-2.06,1.18-.32.07-.64-.02-.94.02-.27.03-.39.21-.51.23-.06.01-1.02-.21-1.14-.25-.47-.16-1.35-1.03-1.69-.93-.24.07-.98,1.07-1.33,1.32-.69.49-2.16,1-2.98.81-.78-.17-1.82-1.42-1.94-1.42-.09,0-.99.88-1.32,1.08-1.06.64-2.19,1.09-3.46.82-.26-.06-.7-.53-.97-.45-.42.13-1.18,1.1-1.92,1.2-.41.06-1.52.05-1.91-.03-.44-.09-1.6-1.17-1.7-1.17-.17,0-1.47,1.74-2.18,1.89-.31.07-1.36.09-1.64,0-.24-.07-.55-.65-.74-.7-.37-.1-.76.63-1.07.84-.74.51-1.68.5-2.41,0-.21-.14-.74-.84-.83-.84-.08,0-.42.49-.59.6-.9.62-2.05.39-2.89-.24-.4-.3-.2-.96-.23-1.45-.04-.56-.48-1,.35-1.07.38-.03.78.12.97.47.15.28.16,1.13.71.97.24-.07.73-1.29,1.21-1.42.22-.06.95-.06,1.17,0,.31.09.94,1.1,1.22,1.18.73.22.5-.18.71-.48.55-.8,1.42-1.22,2.39-.94.26.07.84.94.97.94.17,0,.91-.62,1.09-.83.21-.24.25-.55.46-.73.56-.48,1.28-.73,2.03-.57s1.55,1.66,2.41,1.41c.33-.1,1.11-1.31,1.47-1.41.2-.06.44,0,.67-.05.13-.03.25-.23.51-.23.45,0,1.69.96,1.92.96.08,0,1.12-.68,1.32-.82.36-.26,1.54-1.47,1.81-1.55.51-.14,1.63-.02,2.03.34.22.19.22.45.35.61.82.95,1.06.88,2.04.12,1.41-1.09,1.98-2.83,4.08-1.2.6.46.59.98,1.57.85,1.17-.15,2.65-2.62,3.96-1.81.1.06.8.76.84.84.15.28.11.87.47.97s.48-.39.74-.46c1.04-.3,1.9.36,2.23,1.34.07.21,0,.54.03.57Z" style="fill: inherit;"/><path d="M89.49,93.67c.46.15.58-.38.86-.46.2-.05.44-.02.67-.05.11-.02.19-.18.26-.18.43,0,2.19,1.54,2.62,1.4.61-.19,1.19-1.1,1.47-1.17.2-.06.44,0,.67-.04.13-.03.23-.25.48-.21.72.14,1.56,1.55,1.95,1.66.99.28,1.82-.64,2.65-.92.19-.06.44,0,.67-.05.13-.03.24-.23.51-.23.74,0,1.29.99,1.8,1.34.18.12,1.22.56,1.32.56.13,0,1.1-.44,1.32-.56.54-.31,1.3-1.18,1.82-1.3.25-.06.49.02.7-.01.24-.03.42-.21.47-.21.61,0,1.41.82,1.7.9,1.69.49,2.8-.7,4.09-.92.41-.07,1.26-.09,1.66-.03.78.11,1.78,1.65,2.61,1.43.35-.09.82-.64.99-.69.27-.08,1.34-.07,1.67-.03.56.08,1.37,1.06,1.93,1.19,1.18.27,2.78-1.25,4.28-.92.31.07,1.39.9,1.58.7.03-.03-.03-.2.02-.33.2-.46.86-1.68,1.31-1.81.19-.05.44-.01.68-.05.11-.02.19-.18.26-.18.06,0,.94.46,1.08.56,1.11.8,2.08,1.7,3.35,2.4.84.46,3.61,1.39,3.83,2.17.15.54.07,1.25-.59,1.31-.6.05-.89-.45-1.47-.69-.3-.13-.83-.18-1.13-.31-1.73-.76-3.54-1.75-5.07-2.84-.19,0-1.09,1.52-1.55,1.8-.32.19-.93.1-1.33.37-.53,0-1.19-.81-1.7-.97-.16-.05-1.31.6-1.69.69-.33.07-.65-.03-.94.02s-.43.22-.7.26c-.83.11-2.28-.61-2.89-1.19-1.25.74-2.97.97-4.29.2-.43-.25-.71-.75-1.23-.91-.72.25-1.47.72-2.19.91s-2.36.4-3.07.24c-.33-.07-.92-.6-1.24-.68-.58-.15-2.12,1.14-2.89,1.4-.18.06-.98.25-1.16.28-.7.08-1.67-.04-2.3-.36-.42-.21-1.45-1.32-1.55-1.32-.11,0-1.45.82-1.94.93-.33.07-.64-.02-.94.02s-.47.28-.69.23c-.23-.04-1.13-.43-1.35-.58s-.73-.84-.83-.84c-.06,0-.61.61-.98.69-.29.07-.59,0-.91.05-.38.07-.55.31-1.2.19-1.44-.27-1.11-1.14-2.93-.72-1.16.27-1.84-.88-2.22-1.81-.28-.67-.93-2.11.08-2.25,1.25-.18,1.16.96,1.56,1.92Z" style="fill: inherit;"/><path d="M48.96,135.88s.04.27-.11.49-1.1,1.16-1.32,1.32c-1.32.91-3.56.21-4.45-1.08-.17-.25-.02-.66-.47-.49-.17.07-.4.47-.59.6-.56.39-1.38.45-2.05.36s-1.43-1.57-1.9-1.44c-.16.04-.3.4-.51.46-1.36.38-2.29-.92-2.7-2.06-.16-.42-.48-1.48-.52-1.88-.1-.92.94-1.15,1.33-.61s.78,2.46,1.19,2.64l.97-.94c1.49-.43,1.9,1.01,2.98,1.66,0-.45.85-1.36,1.19-1.57.27-.17.53-.1.82-.14.11-.02.19-.18.26-.18.26,0,.98.68,1.2.93.29.34.66,1.12.95,1.45.09.11.68.47.73.47.1,0,1.22-1.2,1.44-1.43.27-.28.29-.79.98-.94,1.57-.33,2.5.99,3.56.69.22-.06.8-.84,1.09-1.07.64-.49,1.45-.82,2.27-.58.27.08.8.96,1.45.96s1.8-1.34,2.63-1.46c.29-.04.9-.03,1.18.03.41.09,1.62,1.02,1.93.93.15-.04.84-.69,1.09-.84,1.56-.88,2.17-.81,3.6.24.17.13.52.6.6.6.27,0,.93-.76,1.23-.93.22-.13,1.22-.52,1.41-.52.71,0,1.32,1.19,2.38.96.04,0,.58-.21.6-.23.04-.04-.02-.3.12-.47.67-.83,1.26-1.42,2.38-1.18.36.08.92.69.98.69.23,0,.89-1.3,1.31-1.56.5-.31,1.67-.09,2.05.36.23.26.47.92.71,1.21.53.63,2.05,1.73,2.05,2.52,0,.27-.43.77-.62.83-1.28.37-3.14-2.15-3.35-2.15-.15,0-.93,1.1-1.22,1.18-.25.07-.6,0-.91.04-.12.01-.23.25-.49.2-.32-.06-.92-.71-.98-.71-.13,0-1.35,1.33-2.15,1.44-.41.06-1.52.05-1.9-.03-.27-.06-1.09-.68-1.22-.68-.24,0-1.07.84-1.46.92-.36.08-1.29.08-1.67.03-.65-.09-1.56-.98-1.91-.98-.28,0-1.8,1.11-2.63,1.22-1.38.18-1.55-.49-2.42-.71-.65-.17-1.68.95-2.41,1.16-.27.08-.59,0-.9.05-.12.02-.25.23-.51.23-.63,0-1.41-.85-1.91-.73s-.85.7-1.24.92c-.71.42-1.78.62-2.59.48-.34-.06-1.53-.76-1.58-.69Z" style="fill: inherit;"/><path d="M37.44,116.22c.43-1.62,1.69-1.05,2.52,0,.28.35.92,1.84,1.43,1.68.56-.17,1.7-2.9,2.42-3.1.82-.23,1.63.09,2.27.58.41.32,1.42,1.66,1.79,1.56.1-.03,1.24-1.21,1.45-1.44.12-.13.12-.35.23-.48.65-.74.7-.68,1.66-.75.11,0,.19-.18.27-.18.03,0,.5.25.6.32,1.19.83,1.06,3.29,2.88,1.21.21-.24.25-.55.46-.73.52-.45,1.35-.77,2.03-.57.18.05.25.28.37.35.19.11.44.1.47.13.04.04,0,.29.13.47.26.36,1.03.83,1.44.71.29-.08.84-1.03,1.47-1.17,1.44-.31,1.42.17,2.26.82,1.33,1.02,2.1.66,3.36-.24,1.58-1.13,1.34-1.55,3.72-1.33.29.03.45.26.71.27.32,0,1.26-.44,1.68-.51,2.21,1.3,4.46,2.43,6.94,3.15.45.07.48,1.32.38,1.42-.03.03-.77.24-.81.23-.22-.04-.74-.37-1.01-.44-1.21-.32-2.35-.56-3.53-1.02-.75-.3-1.62-1.08-2.41-.9s-1.34.3-2.19.22c-.29-.03-.44-.26-.71-.26-.49,0-2.45,1.9-3.38,2.15-.28.07-.59,0-.91.05-.11.02-.24.18-.5.22-.68.09-1.92-.48-2.53-.85-.14-.08-.27-.35-.36-.35-.24,0-1.07.84-1.46.93-1.05.22-2.33.01-3.22-.58-.18-.12-.51-.6-.6-.6-.14,0-1.28,1.52-1.94,1.66-1.45.31-2.75-.2-3.58-1.41-.15-.22-.06-.59-.23-.49-.42.24-.55.77-.84,1.08-.19.21-1.36,1.01-1.58,1.05-1.2.26-2.28-.38-3.22-1.06-.25-.18-.94-1.14-1.2-.84-.03.04.05.21-.02.33-.27.48-.73.93-1.07,1.34-.14.17-.09.42-.13.46-.03.03-.28.02-.47.13-.12.07-.2.3-.37.35-.24.07-1.4.07-1.65,0-.1-.03-1.33-1.24-1.46-1.42-.2-.29-.32-.92-.36-.96-.12-.14-.66.65-.85.7-.22.06-.95.06-1.17,0-1.09-.31-1.65-4.5-1.22-5.51.57-.81,1.07-.41,1.32.39.07.22-.26.4-.21.66.02.11.18.2.19.31.07.74,0,1.88.75,2.25Z" style="fill: inherit;"/><path d="M87.57,114.3c.62-.38,1.02-1.58,1.79-1.69,1.35-.19,1.25.54,2.04,1.09,1.42,1,2.55-1.23,3.95-.83.2.06.86.93,1.21.93.7,0,1.48-2.02,3.1-1.64.51.12,1.89,1.41,2.18,1.41.14,0,1.03-1.14,1.31-1.32s1.18-.17,1.54-.09c.45.1,1.03.81,1.48.92.85.2,1.59-.36,2.26-.82,1.35-.93,2.49-2.93,4.32-1.68.3.21.83.92,1.3.84.76-.14,2.14-1.55,3.13-1.68,1.41-.18,1.83,1.36,2.88,1.46.87.08,2.32-1.25,3.15-1.42,1.47-.32,2.12.28,3.22,1.05.45.63,2.07,1.74,2.16,2.39.12.83-.09,1.6-1.08,1.32-.21-.06-1.68-1.53-2.05-1.79-.36-.07-1.08-.82-1.32-.82-.14,0-1.76.99-2.19,1.15-.84.3-1.95.48-2.82.49-.65-.15-1.5-1.11-1.71-1.17-.62-.18-1.98,1.09-2.86,1.2-.76.09-1.91.06-2.53-.36-.17-.12-.51-.6-.59-.6-.12,0-1.5,1.36-1.8,1.56-1.25.87-2.88,1.39-4.42,1.05-.26-.06-1.12-.69-1.22-.69-.11,0-.68.78-.98.93-.43.22-1.42.34-1.9.27-.65-.09-1.8-1.2-1.91-1.2s-.83.91-1.07,1.08c-.49.33-.81.28-1.3.38-.13.03-.24.23-.51.23-.45,0-1.23-.75-1.68-.75s-1.45.62-1.94.71c-.76.13-1.86.11-2.5-.33-.17-.12-.51-.6-.59-.6-.1,0-.88,1.1-1.67,1.21-.68.09-1.43-.28-1.78-.87-.47-.8-1.08-3.2.56-2.72.34.1.88,1.02.85,1.43Z" style="fill: inherit;"/><path d="M103.76,168.54c.13,0,1.13.43,1.32.55.61.42.73,1.01,1.07,1.57.13.2.54.42.59.61.3,1.04-.71,1.29-1.53,1.06-.43-.12-.91-1.42-1.47-1.66l-1.89.48c-.97.41-2.41-.11-3.14-.02-1.15.16-1.72.48-3.11.5s-1.42.31-2.66.69c-.75.23-2.07.38-2.86.28-1.02-.14-.63-.86-2.03-.13-.75.39-1.4.48-2.26.33-.75-.13-1.64-1.06-2.2-1.17-.24-.04-1.27.61-1.69.69-1.02.17-1.89-.01-2.74-.57-.18-.12-.5-.6-.6-.6-.04,0-.32.33-.51.44-.89.51-2.04.71-3.07.49-.37-.08-.85-.66-.99-.69-.38-.11-.96.84-1.31,1.08-.95.65-2.23.79-3.13,0-.14-.12-.69-1-.72-1.2-.12-.9.17-2.15,1.21-1.45.19.13.78,1.32,1.07,1.32.18,0,1.43-1.79,2.39-1.93,1.39-.19,1.76.89,2.64.98.66.06,1.3-.8,1.95-.94.3-.07.85-.07,1.15,0,.5.11,1.73,1.16,1.94,1.16.18,0,1.34-.84,1.7-.92.32-.07,1.09-.08,1.42-.03.62.09,1.96,1.32,2.38,1.2.21-.06.99-.87,1.23-.94.3-.09,1.54-.07,1.88,0,.36.08,1.1.75,1.44.69.88-.17,2.14-1.07,3.13-1.2.71-.09,2.21.27,2.38.24,1.7-.32,3.31-.58,5.06-.72.46-.04.98.02,1.45.02.24,0,.4-.21.48-.21Z" style="fill: inherit;"/><path d="M115.62,167.07s-.02.3.12.47.88.92.98.95c.52.15.85-.37,1.21-.45,1.07-.23,1.91.26,2.86.67.4-.29.93-.53,1.32-.81.55-.39,1.69-1.65,2.3-1.78.36-.08,1.27-.08,1.63,0,.72.16,1.97,1.43,2.66,1.43.62,0,1.51-1.07,1.94-1.19.61-.18,1.73-.03,2.27.34,2.22,1.51,3.35,1.14,5.86,1.57.56.1,1.03-.22,1.45.47.34.55.02,1.16-.51,1.42-.08.04-.8.26-.93.27-1.5.19-4.78.06-6.22-.27-.43-.1-.85-.71-1.22-.71-.44,0-1.07.62-1.46.71-1,.22-2.64-.02-3.55-.48-.36-.18-1.19-1.01-1.46-.93-.12.03-1.53,1.4-1.95,1.65-.78.46-1.96.88-2.86.76-.61-.09-1.31-.86-1.88-.71-.13.04-.24.2-.5.23-.97.09-1.78.04-2.53-.61-.61-.52-1.41-1.84-1.18-2.63.03-.09.51-.58.6-.6.18-.05,1.02.2,1.06.24Z" style="fill: inherit;"/><path d="M37.92,172.82c.45,0,.43-.65.49-.71.03-.03.7-.24.82-.26.84-.11,1.18.1,1.69.73l.72,1.2c.57-.98,1.15-1.53,2.38-1.18.35.1.53.89,1.21.7.34-.1,1.33-1.55,1.7-1.66.23-.07.93-.06,1.19-.02.79.11,1.07,1.5,2.14,1.19.19-.05.31-.39.51-.45,1.22-.35,2.9.37,4.05.47.9.08,5.68-.22,5.88,0,.04.04.28.92.24,1.08-.06.2-.36.33-.59.37-2.43.38-4.74.13-7.21.23-.45.02-.57,0-.95,0-.49,0-1.45,1-2.16.99-.53-.27-1.14-.22-1.65-.52-.24-.14-.7-.69-.75-.69-.11,0-.83.92-1.07,1.08-.55.38-1.37.47-2.02.33-.22-.05-.57-.39-.75-.45-.74-.21-.49.17-.7.47-.66.95-1.76.97-2.53.12-.27-.3-.85-1.5-1.08-1.56-.37-.1-.48.39-.74.46-.96.27-1.59-.23-2.14-.94-.49-.64-.82-1.46-.59-2.27.1-.36.73-.45,1.07-.36.28.08.82,1.29.85,1.67Z" style="fill: inherit;"/><path d="M132.79,110.48c.22-.06.94-.06,1.17,0,.92.26.2.43,1.69.21,1.22-.17,3.58,1.2,4.83,1.66.28.1.92-.08,1.05.39.37,1.37-.69,1.47-1.8,1.32-1-.13-2.98-1.29-3.83-1.22-.73.07-1.55,1.2-2.62.95-.24-.05-1.01-.61-1.08-.84-.17-.61-.11-2.29.6-2.49Z" style="fill: inherit;"/></g></svg>