<?xml version="1.0" encoding="UTF-8" standalone="no"?>
<!-- Created with Inkscape (http://www.inkscape.org/) -->

<svg
   width="213.05mm"
   height="51.792mm"
   viewBox="0 0 213.05 51.792"
   version="1.1"
   id="svg1"
   xmlns="http://www.w3.org/2000/svg"
   xmlns:svg="http://www.w3.org/2000/svg">
  <defs
     id="defs1" />
  <g
     id="layer1"
     transform="translate(-5.9953821,-5.7649205)">
    <path
       style="font-size:50.8px;line-height:0;font-family:Aplenty;-inkscape-font-specification:Aplenty;letter-spacing:0px;word-spacing:0px;fill:none;stroke:#b25d7f;stroke-width:0.264583"
       d="m 13.375855,35.59797 q 0,-2.3368 0.6096,-5.1816 0.6096,-2.8448 1.5748,-5.6896 1.016,-2.8956 2.286,-5.4864 1.3208,-2.6416 2.7432,-4.5212 0.1016,-0.1524 0.3048,-0.4064 0.254,-0.3048 0.508,-0.6096 0.254,-0.3048 0.508,-0.508 0.254,-0.2032 0.4572,-0.2032 0.6604,0 0.6604,0.6604 0,0.2032 -0.1524,0.3556 -0.254,0.3048 -0.508,0.5588 -0.254,0.254 -0.508,0.5588 -0.508,0.6096 -0.9652,1.3208 -0.4064,0.6604 -0.8128,1.3716 -1.016,1.7272 -2.032,4.0132 -0.9652,2.2352 -1.7272,4.6228 -0.762,2.3876 -1.2192,4.7752 -0.4572,2.3368 -0.4572,4.3688 0,0.3048 0,0.8636 0.0508,0.5588 0.1524,1.1176 0.1524,0.5588 0.3556,0.9652 0.254,0.4064 0.6604,0.4064 0.9652,0 2.2352,-1.3716 1.3208,-1.3716 2.6924,-3.5052 1.4224,-2.1844 2.8448,-4.7752 1.4224,-2.5908 2.6416,-5.0292 1.2192,-2.4892 2.0828,-4.4704 0.9144,-2.032 1.3208,-2.9972 0.1016,-0.2032 0.254,-0.6604 0.1524,-0.508 0.3048,-0.9652 0.2032,-0.508 0.4572,-0.8636 0.254,-0.3556 0.508,-0.3556 0.4064,0 0.5588,0.254 0.2032,0.254 0.2032,0.6096 0,2.7432 -0.4064,5.4356 -0.4064,2.6924 -0.9652,5.334 -0.3048,1.4732 -0.9652,4.1148 -0.6604,2.6416 -1.6256,5.7404 -0.9652,3.0988 -2.1844,6.2992 -1.2192,3.2004 -2.6416,5.7912 -1.3716,2.5908 -2.8956,4.2164 -1.524,1.6764 -3.0988,1.6764 -0.8128,0 -1.3716,-0.4064 -0.508,-0.3556 -0.8636,-0.9652 -0.3048,-0.5588 -0.4572,-1.27 -0.1524,-0.7112 -0.1524,-1.3716 0,-0.3048 0.0508,-1.1176 0.1016,-0.762 0.3048,-1.5748 0.2032,-0.8128 0.4572,-1.4224 0.3048,-0.6604 0.7112,-0.6604 0.6604,0 0.6604,0.6604 0,0.2032 -0.2032,0.6604 -0.1524,0.4572 -0.254,0.7112 -0.4572,1.3716 -0.4572,2.7432 0,0.3556 0.0508,0.8128 0.0508,0.508 0.2032,0.9144 0.2032,0.4064 0.508,0.7112 0.3048,0.3048 0.762,0.3048 0.7112,0 1.3208,-0.508 0.6604,-0.4572 1.0668,-0.9652 1.3716,-1.4732 2.6416,-3.9116 1.27,-2.3876 2.3876,-5.2832 1.1684,-2.9464 2.1336,-6.1468 1.016,-3.2512 1.778,-6.35 0.8128,-3.1496 1.3208,-5.9436 0.508,-2.8448 0.7112,-4.9276 -0.4572,1.0668 -1.3716,3.1496 -0.9144,2.032 -2.1336,4.4704 -1.2192,2.4384 -2.6416,5.0292 -1.4224,2.5908 -2.8956,4.6736 -1.4732,2.0828 -2.8956,3.4544 -1.4224,1.3208 -2.6416,1.3208 -0.8128,0 -1.3208,-0.4572 -0.508,-0.508 -0.762,-1.2192 -0.254,-0.762 -0.3556,-1.524 -0.0508,-0.8128 -0.0508,-1.4224 z m 26.212765,-6.2992 q 0.5588,0 0.9144,0.3048 0.3556,0.3048 0.4064,0.8636 0.4064,0.1016 0.508,0.508 0.1524,0.3556 0.1524,0.762 0.5588,0.5588 1.4732,0.8636 0.9144,0.254 1.6256,0.254 0.6096,0 1.27,-0.2032 0.7112,-0.2032 1.27,-0.4064 0.6096,-0.254 1.0668,-0.4064 0.4572,-0.2032 0.6096,-0.2032 0.6604,0 0.6604,0.5588 0,0.4572 -0.6604,0.8128 -0.6096,0.3556 -1.4732,0.6096 -0.8128,0.254 -1.6256,0.4064 -0.762,0.1016 -1.1176,0.1016 -0.9652,0 -1.7272,-0.2032 -0.7112,-0.2032 -1.524,-0.762 -0.254,1.524 -0.9652,3.6068 -0.6604,2.0828 -1.6256,3.9624 -0.9144,1.8796 -2.0828,3.2004 -1.1176,1.3208 -2.3368,1.3208 -0.6096,0 -1.016,-0.3048 -0.4064,-0.3556 -0.6096,-0.8636 -0.2032,-0.508 -0.3048,-1.0668 -0.0508,-0.5588 -0.0508,-1.0668 0,-2.1336 0.6096,-4.1656 0.3048,-1.016 0.8636,-2.4384 0.6096,-1.4732 1.4224,-2.794 0.8636,-1.3716 1.9304,-2.286 1.1176,-0.9652 2.3368,-0.9652 z m 0,1.3208 q -0.9144,0 -1.778,0.8636 -0.8128,0.8636 -1.5748,2.0828 -0.7112,1.1684 -1.2192,2.3876 -0.508,1.2192 -0.7112,1.9812 -0.6096,1.9812 -0.6096,4.0132 0,0.1524 0,0.508 0,0.3556 0.0508,0.7112 0.1016,0.3048 0.2032,0.5588 0.1524,0.254 0.4064,0.254 0.4064,0 0.8128,-0.3556 0.4064,-0.3556 0.6604,-0.6096 0.762,-0.8636 1.524,-2.1844 0.762,-1.3716 1.3716,-2.8956 0.6604,-1.524 1.0668,-3.048 0.4572,-1.524 0.508,-2.7432 -0.3556,-0.5588 -0.3556,-0.9652 -0.254,-0.254 -0.254,-0.508 v -0.0508 z m 5.740389,12.1412 q 0,-1.0668 0.1524,-2.1336 0.2032,-1.1176 0.4572,-2.1336 0.1524,-0.6096 0.7112,-2.286 0.5588,-1.6764 1.27,-3.4036 0.762,-1.778 1.524,-3.1496 0.8128,-1.3716 1.4224,-1.3716 0.6604,0 0.6604,0.6604 0,0.1016 -0.1016,0.3048 -0.1016,0.1524 -0.254,0.3048 -0.1524,0.1524 -0.254,0.3048 -0.254,0.4064 -0.508,0.8128 -0.254,0.3556 -0.4572,0.762 -0.5588,1.0668 -1.1684,2.54 -0.5588,1.4224 -1.0668,2.9972 -0.508,1.524 -0.8128,3.048 -0.3048,1.524 -0.3048,2.7432 0,0.3048 0,0.6096 0,0.3048 0.1016,0.5588 0.7112,-0.4572 1.8288,-2.032 1.1684,-1.6256 2.3876,-3.6576 1.27,-2.0828 2.4384,-4.1656 1.1684,-2.1336 1.8288,-3.6068 0.4064,-1.4224 0.7112,-1.7272 0.1524,-0.2032 0.4572,-0.2032 0.6604,0 0.6604,0.5588 0,0.1016 -0.0508,0.2032 0,0.1016 0,0.2032 -0.4064,1.0668 -0.8636,2.4384 -0.4572,1.3208 -0.8128,2.7432 -0.3556,1.3716 -0.6096,2.7432 -0.2032,1.3716 -0.2032,2.4892 0,0.3556 0.0508,1.0668 0.0508,0.6604 0.2032,1.3208 0.1524,0.6604 0.4572,1.1684 0.3048,0.508 0.8128,0.508 0.6096,0 1.3208,-0.5588 0.7112,-0.5588 1.4732,-1.4224 0.762,-0.8636 1.524,-1.9304 0.762,-1.1176 1.4224,-2.1336 0.6604,-1.016 1.1684,-1.8796 0.507999,-0.9144 0.812799,-1.4224 0.4064,-0.7112 0.762,-1.4732 0.4064,-0.762 0.9652,-1.3208 0.1524,-0.1524 0.3048,-0.2032 0.762,0 0.762,0.5588 0,0.1524 -0.2032,0.508 -0.1524,0.3556 -0.4064,0.762 -0.254,0.4064 -0.508,0.8128 -0.2032,0.4064 -0.3048,0.5588 -0.5588,0.9652 -1.6256,2.7432 -1.015999,1.7272 -2.285999,3.4544 -1.2192,1.6764 -2.5908,2.9464 -1.3208,1.27 -2.54,1.27 -0.9144,0 -1.4732,-0.5588 -0.5588,-0.6096 -0.8636,-1.4224 -0.3048,-0.8128 -0.4064,-1.7272 -0.1016,-0.9652 -0.1016,-1.6256 0,-0.9652 0.1016,-1.8796 0.1524,-0.9652 0.3556,-1.9304 -1.3208,2.4384 -2.8448,4.7752 -1.4732,2.286 -2.7432,3.556 -0.254,0.254 -0.6604,0.5588 -0.3556,0.254 -0.762,0.254 -0.4572,0 -0.7112,-0.254 -0.254,-0.3048 -0.4064,-0.6604 -0.1524,-0.4064 -0.2032,-0.8128 0,-0.4572 0,-0.762 z m 23.367978,-23.3172 q 0,-0.2032 0.1016,-1.1176 0.1524,-0.9652 0.3048,-1.9812 0.1524,-1.0668 0.3048,-1.9304 0.1524,-0.8636 0.2032,-0.9652 0.1524,-0.3048 0.508,-0.3048 0.6604,0 0.6604,0.5588 0,0.8128 -0.2032,1.6256 -0.2032,0.8128 -0.3048,1.6256 0,0.1524 -0.0508,0.5588 -0.0508,0.4064 -0.1016,0.8636 -0.0508,0.4572 -0.1016,0.8128 -0.0508,0.3556 -0.1016,0.4572 -0.1524,0.3556 -0.5588,0.3556 -0.6604,0 -0.6604,-0.5588 z m 9.956843,13.2588 q -0.508,-0.4064 -0.508,-0.762 0,-0.6604 0.6096,-0.6604 0.5588,0 0.8636,0.508 0.3048,0.4572 0.3048,1.016 0,0.254 -0.0508,0.4064 0.4572,-0.8128 0.9652,-1.524 0.508,-0.762 1.1176,-1.4732 0.4064,-0.4064 0.8636,-0.8128 0.508,-0.4064 1.0668,-0.4064 1.016,0 1.524,0.7112 0.5588,0.7112 0.9144,1.5748 0.4064,0.8128 0.8128,1.524 0.4572,0.7112 1.3208,0.7112 0.6096,0 1.2192,-0.3048 0.6096,-0.3048 1.1684,-0.6604 0.5588,-0.3556 0.9652,-0.6604 0.4572,-0.3048 0.6604,-0.3048 0.6604,0 0.6604,0.5588 0,0.3556 -0.2032,0.5588 -0.3556,0.3048 -0.9144,0.7112 -0.5588,0.3556 -1.1684,0.6604 -0.6096,0.3048 -1.27,0.508 -0.6096,0.2032 -1.1176,0.2032 -1.2192,0 -1.8796,-0.7112 -0.6096,-0.7112 -1.0668,-1.524 -0.4064,-0.8636 -0.7112,-1.5748 -0.3048,-0.7112 -0.8636,-0.7112 -0.4572,0 -1.1176,0.762 -0.6096,0.762 -1.3716,1.9812 -0.7112,1.1684 -1.4732,2.6924 -0.762,1.524 -1.4732,3.048 -0.3048,1.0668 -0.6604,2.1336 -0.3556,1.0668 -0.7112,1.9812 -0.3048,0.9144 -0.6096,1.5748 -0.254,0.6096 -0.4572,0.8636 -0.254,0.3556 -0.6096,0.3556 -0.6604,0 -0.6604,-0.5588 0,-0.4064 0.2032,-1.1176 0.2032,-0.762 0.5588,-1.6764 0.3556,-0.9144 0.8128,-1.9304 0.4572,-1.016 0.9144,-2.032 0.5588,-1.8288 0.9652,-3.4036 0.4064,-1.5748 0.4064,-2.0828 z m 17.272031,-3.81 q 0.7112,0 1.1176,0.508 0.4064,0.4572 0.4064,1.1684 0,0.8128 -0.7112,1.778 -0.6604,0.9144 -1.6764,1.778 -1.015999,0.8128 -2.133599,1.4224 -1.0668,0.6096 -1.9304,0.762 -0.6604,1.4732 -1.0668,2.9972 -0.4064,1.4732 -0.4064,2.6416 0,0.9144 0.3556,1.7272 0.3556,0.8128 1.4732,0.8128 1.3208,0 2.844799,-1.1176 1.5748,-1.1176 3.048,-2.6924 1.524,-1.5748 2.793999,-3.2004 1.27,-1.6256 1.9812,-2.6416 0.508,-0.7112 1.016,-1.5748 0.5588,-0.9144 1.1176,-1.4732 0.2032,-0.2032 0.3556,-0.2032 0.762,0 0.762,0.6604 0,0.1524 -0.254,0.508 -0.2032,0.3556 -0.508,0.8128 -0.254,0.4064 -0.5588,0.762 -0.254,0.3556 -0.3556,0.508 -0.8636,1.2192 -2.286,3.0988 -1.422399,1.8796 -3.098799,3.6068 -1.6764,1.7272 -3.5052,2.9972 -1.777999,1.2192 -3.403599,1.2192 -1.6256,0 -2.3368,-1.1684 -0.7112,-1.1684 -0.7112,-2.6416 0,-1.016 0.2032,-1.9304 0.2032,-0.9652 0.508,-1.8796 0.3048,-0.9144 1.016,-2.4892 0.7112,-1.5748 1.6256,-3.048 0.9652,-1.524 2.0828,-2.5908 1.117599,-1.1176 2.235199,-1.1176 z m -0.0508,1.3208 q -0.508,0 -1.1684,0.5588 -0.609599,0.5588 -1.168399,1.3208 -0.5588,0.7112 -1.016,1.4732 -0.4572,0.7112 -0.6604,1.1176 0.4572,-0.2032 1.1684,-0.6604 0.762,-0.508 1.422399,-1.1176 0.7112,-0.6096 1.1684,-1.27 0.508,-0.6604 0.508,-1.1684 0,-0.254 -0.254,-0.254 z m 24.739609,-5.2832 q 0,-0.508 0.254,-1.1176 0.3048,-0.6604 0.8128,-0.9144 -0.3048,-0.1524 -0.3048,-0.5588 0,-0.4064 0.3048,-0.5588 0.3556,-0.1524 0.7112,-0.1524 0.6096,0 1.1684,0.3556 0.5588,0.3048 0.5588,1.016 0,0.3556 -0.254,0.8636 -0.254,0.508 -0.6604,0.9652 -0.3556,0.4572 -0.8128,0.8128 -0.4572,0.3048 -0.8636,0.3048 -0.4064,0 -0.6604,-0.3048 -0.254,-0.3048 -0.254,-0.7112 z m 2.2352,-1.9304 q -0.1016,-0.1016 -0.4064,-0.1016 0.2032,0.2032 0.254,0.4572 z m -6.604,18.1356 q 0,-2.1336 0.4572,-4.1148 0.1016,-0.508 0.508,-1.9304 0.4572,-1.4732 0.9652,-2.9972 0.5588,-1.5748 1.1176,-2.7432 0.6096,-1.2192 1.0668,-1.2192 0.6604,0 0.6604,0.5588 0,0.1016 0,0.1524 0.0508,0 0,0.1016 -0.1524,0.4064 -0.3556,0.7112 -0.1524,0.3048 -0.3048,0.6096 -0.762,1.524 -1.27,3.048 -0.6604,1.8288 -1.1176,3.8608 -0.4572,2.032 -0.4572,3.9624 0,0.3048 0,0.8128 0.0508,0.4572 0.1524,0.9144 0.1016,0.4572 0.3048,0.8128 0.254,0.3048 0.7112,0.3048 0.9652,0 2.1844,-1.1176 1.2192,-1.1684 2.3368,-2.6924 1.1684,-1.5748 2.1336,-3.1496 0.9652,-1.5748 1.4224,-2.3876 0.4064,-0.7112 0.762,-1.4732 0.4064,-0.762 0.9652,-1.3208 0.1524,-0.1524 0.3048,-0.2032 0.762,0 0.762,0.5588 0,0.1524 -0.2032,0.508 -0.1524,0.3556 -0.4064,0.762 -0.254,0.4064 -0.508,0.8128 -0.2032,0.4064 -0.3048,0.5588 -0.6096,1.016 -1.6764,2.794 -1.016,1.7272 -2.3368,3.4544 -1.27,1.6764 -2.6924,2.9464 -1.3716,1.2192 -2.6924,1.2192 -0.8128,0 -1.3208,-0.4064 -0.4572,-0.4064 -0.762,-1.016 -0.254,-0.6096 -0.3556,-1.3208 -0.0508,-0.762 -0.0508,-1.3716 z m 12.64917,-8.4328 q -0.508,-0.4064 -0.508,-0.762 0,-0.6604 0.6096,-0.6604 0.6096,0 0.9144,0.508 0.3048,0.508 0.3048,1.0668 0,0.7112 -0.4064,2.4892 1.4224,-1.778 2.794,-2.9464 1.3716,-1.1684 2.3368,-1.1684 0.8636,0 1.2192,0.6096 0.3556,0.5588 0.3556,1.3208 0,1.2192 -0.3048,2.3876 -0.254,1.1684 -0.6096,2.3368 -0.3556,1.1684 -0.6604,2.3368 -0.254,1.1684 -0.254,2.3876 0,0.4572 0.1016,0.8636 0.1524,0.3556 0.7112,0.3556 0.9652,0 2.2352,-1.1176 1.27,-1.1684 2.4892,-2.6924 1.2192,-1.524 2.2352,-3.048 1.0668,-1.524 1.5748,-2.3368 0.4064,-0.7112 0.8128,-1.4732 0.4572,-0.8128 1.016,-1.3716 0.1524,-0.1524 0.3048,-0.2032 0.762,0 0.762,0.5588 0,0.1524 -0.2032,0.508 -0.1524,0.3556 -0.4064,0.762 -0.254,0.4064 -0.508,0.8128 -0.254,0.3556 -0.3556,0.508 -0.4064,0.6604 -1.1176,1.7272 -0.6604,1.016 -1.4732,2.1844 -0.8128,1.1176 -1.7272,2.286 -0.9144,1.1684 -1.8796,2.0828 -0.9652,0.9144 -1.9304,1.524 -0.9144,0.5588 -1.778,0.5588 -1.1684,0 -1.6764,-0.7112 -0.4572,-0.7112 -0.4572,-1.778 0,-1.016 0.2032,-1.9304 0.2032,-0.9652 0.4572,-1.9304 l 0.508,-1.8288 q 0.254,-0.9652 0.4572,-1.8796 0.2032,-0.9652 0.2032,-1.9812 0,-0.1524 -0.0508,-0.3048 -0.0508,-0.2032 -0.3048,-0.2032 -0.5588,0 -1.4732,0.8128 -0.8636,0.762 -1.778,1.778 -0.8636,1.016 -1.6256,2.032 -0.7112,0.9652 -1.016,1.3716 -0.6096,2.1336 -1.3208,4.064 -0.7112,1.8796 -1.1684,2.4892 -0.1524,0.2032 -0.3556,0.3556 -0.2032,0.2032 -0.508,0.2032 -0.4064,0 -0.6604,-0.3556 -0.254,-0.4064 -0.254,-0.762 0,-0.9652 0.8128,-2.6924 0.8636,-1.778 2.1844,-3.7084 0.4572,-1.6256 0.8128,-3.0988 0.3556,-1.4732 0.3556,-2.1844 z m 15.64645,8.7884 q 0,-0.508 0.0508,-1.6256 0.1016,-1.1684 0.254,-2.6416 0.1524,-1.4732 0.4064,-3.048 0.254,-1.5748 0.5588,-2.8956 0.3556,-1.3208 0.762,-2.1336 0.4572,-0.8636 0.9652,-0.8636 0.6604,0 0.6604,0.6604 0,0.254 -0.1524,0.3556 -0.1524,0.1016 -0.254,0.3048 -0.254,0.4064 -0.508,1.2192 -0.2032,0.762 -0.3048,1.2192 -1.1684,4.7752 -1.1684,9.4488 0,0.508 0,0.9652 0.0508,0.4572 0.1524,0.9652 0.0508,0.1524 0.1016,0.3048 0.0508,0.1016 0.1016,0.254 0.4572,-0.2032 1.0668,-0.9144 0.6604,-0.762 1.3208,-1.8288 0.7112,-1.0668 1.4224,-2.3368 0.7112,-1.3208 1.3208,-2.5908 0.6604,-1.27 1.1684,-2.4384 0.5588,-1.2192 0.8636,-2.0828 -0.3556,-0.7112 -0.3556,-1.4224 0,-0.4064 0.2032,-0.8128 0.254,-0.4064 0.762,-0.4064 1.016,0 1.016,1.016 0,0.4064 -0.254,1.4224 0.5588,0.5588 1.5748,0.8128 1.0668,0.2032 1.7272,0.2032 1.1684,0 2.1844,-0.3556 0.254,-0.1016 0.7112,-0.3556 0.508,-0.254 0.7112,-0.254 0.6604,0 0.6604,0.5588 0,0.4572 -0.5588,0.762 -0.508,0.3048 -1.2192,0.508 -0.7112,0.2032 -1.4224,0.3048 -0.7112,0.1016 -1.0668,0.1016 -0.9144,0 -1.9304,-0.254 -1.016,-0.254 -1.8288,-0.8128 -0.6096,1.7272 -1.6764,3.9116 -1.0668,2.1336 -2.2352,4.064 -1.1684,1.8796 -2.3368,3.2004 -1.1176,1.3208 -1.8796,1.3208 -0.5588,0 -0.9144,-0.4572 -0.3048,-0.4572 -0.4572,-1.0668 -0.1524,-0.6096 -0.2032,-1.2192 0,-0.6604 0,-1.0668 z m 18.94838,-16.5608 q 0,-0.508 0.254,-1.1176 0.3048,-0.6604 0.8128,-0.9144 -0.3048,-0.1524 -0.3048,-0.5588 0,-0.4064 0.3048,-0.5588 0.3556,-0.1524 0.7112,-0.1524 0.6096,0 1.1684,0.3556 0.5588,0.3048 0.5588,1.016 0,0.3556 -0.254,0.8636 -0.254,0.508 -0.6604,0.9652 -0.3556,0.4572 -0.8128,0.8128 -0.4572,0.3048 -0.8636,0.3048 -0.4064,0 -0.6604,-0.3048 -0.254,-0.3048 -0.254,-0.7112 z m 2.2352,-1.9304 q -0.1016,-0.1016 -0.4064,-0.1016 0.2032,0.2032 0.254,0.4572 z m -6.604,18.1356 q 0,-2.1336 0.4572,-4.1148 0.1016,-0.508 0.508,-1.9304 0.4572,-1.4732 0.9652,-2.9972 0.5588,-1.5748 1.1176,-2.7432 0.6096,-1.2192 1.0668,-1.2192 0.6604,0 0.6604,0.5588 0,0.1016 0,0.1524 0.0508,0 0,0.1016 -0.1524,0.4064 -0.3556,0.7112 -0.1524,0.3048 -0.3048,0.6096 -0.762,1.524 -1.27,3.048 -0.6604,1.8288 -1.1176,3.8608 -0.4572,2.032 -0.4572,3.9624 0,0.3048 0,0.8128 0.0508,0.4572 0.1524,0.9144 0.1016,0.4572 0.3048,0.8128 0.254,0.3048 0.7112,0.3048 0.9652,0 2.1844,-1.1176 1.2192,-1.1684 2.3368,-2.6924 1.1684,-1.5748 2.1336,-3.1496 0.9652,-1.5748 1.4224,-2.3876 0.4064,-0.7112 0.762,-1.4732 0.4064,-0.762 0.9652,-1.3208 0.1524,-0.1524 0.3048,-0.2032 0.762,0 0.762,0.5588 0,0.1524 -0.2032,0.508 -0.1524,0.3556 -0.4064,0.762 -0.254,0.4064 -0.508,0.8128 -0.2032,0.4064 -0.3048,0.5588 -0.6096,1.016 -1.6764,2.794 -1.016,1.7272 -2.3368,3.4544 -1.27,1.6764 -2.6924,2.9464 -1.3716,1.2192 -2.6924,1.2192 -0.8128,0 -1.3208,-0.4064 -0.4572,-0.4064 -0.762,-1.016 -0.254,-0.6096 -0.3556,-1.3208 -0.0508,-0.762 -0.0508,-1.3716 z m 12.54756,2.6924 q 0.6604,0 1.5748,-0.508 0.9652,-0.5588 1.9812,-1.4224 1.0668,-0.8636 2.1336,-1.8796 1.1176,-1.0668 2.0828,-2.0828 0.9652,-1.016 1.7272,-1.9304 0.8128,-0.9144 1.27,-1.4224 0.4064,-0.4572 0.7112,-0.8636 0.3556,-0.4572 0.7112,-0.9144 0.2032,-0.254 0.3048,-0.508 0.1524,-0.254 0.4064,-0.508 0.1524,-0.1524 0.4572,-0.1524 0.6604,0 0.6604,0.6096 0,0.1524 -0.2032,0.508 -0.2032,0.3048 -0.508,0.6604 -0.254,0.3556 -0.5588,0.7112 -0.254,0.3048 -0.3556,0.4572 -0.508,0.6604 -1.4224,1.7272 -0.8636,1.016 -1.9812,2.1844 -1.0668,1.1684 -2.286,2.3368 -1.2192,1.1684 -2.4384,2.1336 -1.1684,0.9652 -2.286,1.5748 -1.0668,0.5588 -1.9304,0.5588 -0.7112,0 -1.2192,-0.3048 -0.4572,-0.3556 -0.762,-0.8636 -0.3048,-0.5588 -0.4572,-1.1684 -0.1016,-0.6604 -0.1016,-1.27 0,-1.4732 0.4572,-3.7592 0.4572,-2.286 1.1684,-4.8768 0.762,-2.6416 1.6764,-5.3848 0.9144,-2.794 1.778,-5.2324 h -4.064 q -0.6096,0 -0.6096,-0.6096 0,-0.6604 0.6096,-0.6604 h 4.5212 q 0.508,-1.4224 0.9652,-2.5908 0.4572,-1.1684 0.8128,-2.0828 0.1524,-0.3556 0.4064,-1.016 0.3048,-0.7112 0.8128,-0.7112 0.7112,0 0.7112,0.6604 0,0.254 -0.1524,0.8636 -0.1524,0.5588 -0.4064,1.27 -0.2032,0.6604 -0.4572,1.27 -0.2032,0.6096 -0.3048,0.9144 -0.1016,0.3556 -0.254,0.7112 -0.1524,0.3556 -0.254,0.7112 h 6.5532 q 0.6604,0 0.6604,0.6604 0,0.6096 -0.6604,0.6096 h -7.0104 q -0.5588,1.524 -1.1176,3.048 -0.5588,1.524 -1.1176,3.048 -0.4064,1.016 -0.8128,2.032 -0.3556,0.9652 -0.7112,1.9812 -0.3048,0.8636 -0.6604,2.0828 -0.3048,1.1684 -0.6096,2.4892 -0.254,1.27 -0.4572,2.4892 -0.2032,1.2192 -0.2032,2.0828 0,0.254 0.0508,0.6604 0.0508,0.4064 0.1524,0.8128 0.1524,0.3556 0.4064,0.6096 0.254,0.254 0.6096,0.254 z m 16.71321,-14.9352 q 0.7112,0 1.1176,0.508 0.4064,0.4572 0.4064,1.1684 0,0.8128 -0.7112,1.778 -0.6604,0.9144 -1.6764,1.778 -1.016,0.8128 -2.1336,1.4224 -1.0668,0.6096 -1.9304,0.762 -0.6604,1.4732 -1.0668,2.9972 -0.4064,1.4732 -0.4064,2.6416 0,0.9144 0.3556,1.7272 0.3556,0.8128 1.4732,0.8128 1.3208,0 2.8448,-1.1176 1.5748,-1.1176 3.048,-2.6924 1.524,-1.5748 2.794,-3.2004 1.27,-1.6256 1.9812,-2.6416 0.508,-0.7112 1.016,-1.5748 0.5588,-0.9144 1.1176,-1.4732 0.2032,-0.2032 0.3556,-0.2032 0.762,0 0.762,0.6604 0,0.1524 -0.254,0.508 -0.2032,0.3556 -0.508,0.8128 -0.254,0.4064 -0.5588,0.762 -0.254,0.3556 -0.3556,0.508 -0.8636,1.2192 -2.286,3.0988 -1.4224,1.8796 -3.0988,3.6068 -1.6764,1.7272 -3.5052,2.9972 -1.778,1.2192 -3.4036,1.2192 -1.6256,0 -2.3368,-1.1684 -0.7112,-1.1684 -0.7112,-2.6416 0,-1.016 0.2032,-1.9304 0.2032,-0.9652 0.508,-1.8796 0.3048,-0.9144 1.016,-2.4892 0.7112,-1.5748 1.6256,-3.048 0.9652,-1.524 2.0828,-2.5908 1.1176,-1.1176 2.2352,-1.1176 z m -0.0508,1.3208 q -0.508,0 -1.1684,0.5588 -0.6096,0.5588 -1.1684,1.3208 -0.5588,0.7112 -1.016,1.4732 -0.4572,0.7112 -0.6604,1.1176 0.4572,-0.2032 1.1684,-0.6604 0.762,-0.508 1.4224,-1.1176 0.7112,-0.6096 1.1684,-1.27 0.508,-0.6604 0.508,-1.1684 0,-0.254 -0.254,-0.254 z m 10.66798,-0.2032 q 0.4572,0 0.7112,0.254 0.254,0.2032 0.4064,0.5588 0.1524,0.3556 0.1524,0.762 0.0508,0.4064 0.0508,0.762 0.7112,-1.6256 1.4224,-3.3528 0.762,-1.7272 1.4732,-3.4036 0.8636,-3.048 1.7272,-5.842 0.8636,-2.8448 1.6764,-5.08 0.1016,-0.2032 0.2032,-0.5588 0.1016,-0.3556 0.254,-0.6604 0.1524,-0.3556 0.3556,-0.5588 0.254,-0.254 0.508,-0.254 0.3556,0 0.508,0.3048 0.2032,0.254 0.2032,0.5588 0,0.6604 -0.3556,1.9812 -0.3556,1.27 -0.9652,2.9464 -0.5588,1.6764 -1.3208,3.6576 -0.762,1.9812 -1.6256,4.0132 -1.016,3.81 -1.778,7.7216 -0.762,3.8608 -0.762,6.9088 0,0.3048 0,0.8636 0.0508,0.508 0.1524,1.0668 0.1524,0.508 0.3556,0.9144 0.254,0.4064 0.6604,0.4064 0.8636,0 1.9812,-1.1684 1.1176,-1.2192 2.2352,-2.794 1.1176,-1.5748 2.032,-3.0988 0.9652,-1.5748 1.3716,-2.286 0.4064,-0.7112 0.762,-1.4224 0.4064,-0.762 0.9652,-1.3716 0.1524,-0.1524 0.3048,-0.2032 0.762,0 0.762,0.5588 0,0.1524 -0.2032,0.508 -0.2032,0.3556 -0.4572,0.8128 -0.254,0.4064 -0.508,0.8128 -0.2032,0.4064 -0.3048,0.5588 -0.5588,0.9652 -1.5748,2.6924 -1.016,1.7272 -2.286,3.4544 -1.2192,1.6764 -2.54,2.9464 -1.3208,1.27 -2.4892,1.27 -0.8128,0 -1.3208,-0.4572 -0.508,-0.508 -0.762,-1.1684 -0.254,-0.7112 -0.3556,-1.4732 -0.0508,-0.8128 -0.0508,-1.4224 0,-1.6764 0.254,-3.6576 0.254,-2.032 0.6604,-4.2672 -0.7112,1.6764 -1.3208,2.9972 -0.5588,1.27 -0.9144,1.9812 -0.254,0.5588 -0.8636,1.8288 -0.6096,1.2192 -1.3716,2.4892 -0.762,1.2192 -1.5748,2.1844 -0.762,0.9652 -1.4224,0.9652 -0.4572,0 -0.7112,-0.254 -0.254,-0.254 -0.4064,-0.6096 -0.1016,-0.3556 -0.1524,-0.762 -0.0508,-0.4572 -0.0508,-0.762 0,-1.8796 0.5588,-3.81 0.2032,-0.762 0.762,-2.286 0.6096,-1.524 1.3716,-2.9972 0.8128,-1.524 1.7272,-2.6416 0.9652,-1.1176 1.8796,-1.1176 z m -4.9276,13.9192 q 0.4064,-0.3048 0.9652,-1.1176 0.5588,-0.8128 1.2192,-2.032 0.6604,-1.2192 1.4224,-2.7432 0.762,-1.5748 1.5748,-3.302 -0.3556,-0.2032 -0.3556,-0.508 0,-0.5588 0.0508,-1.016 0.1016,-0.508 0.1016,-1.0668 0,-0.3048 -0.1016,-0.8128 -0.4064,0.2032 -0.762,0.6096 -0.3048,0.3556 -0.5588,0.7112 -0.6604,0.9144 -1.3208,2.2352 -0.6604,1.27 -1.2192,2.6416 -0.508,1.3716 -0.8128,2.794 -0.3048,1.3716 -0.3048,2.54 0,0.254 0,0.5588 0,0.254 0.1016,0.508 z"
       id="text1"
       aria-label="You're invited" />
  </g>
</svg>
